<svg xmlns="http://www.w3.org/2000/svg" xmlns:xlink="http://www.w3.org/1999/xlink" width="500" zoomAndPan="magnify" viewBox="0 0 375 374.999991" height="500" preserveAspectRatio="xMidYMid meet" version="1.0"><defs><clipPath id="850abdf543"><path d="M 63 230 L 312 230 L 312 321.421875 L 63 321.421875 Z M 63 230 " clip-rule="nonzero"/></clipPath><clipPath id="852b137601"><path d="M 53.671875 149 L 163 149 L 163 316 L 53.671875 316 Z M 53.671875 149 " clip-rule="nonzero"/></clipPath><clipPath id="fe9f9b0906"><path d="M 212 149 L 321.421875 149 L 321.421875 316 L 212 316 Z M 212 149 " clip-rule="nonzero"/></clipPath><clipPath id="f0c8c62ce7"><path d="M 87 53.671875 L 288 53.671875 L 288 228 L 87 228 Z M 87 53.671875 " clip-rule="nonzero"/></clipPath></defs><g clip-path="url(#850abdf543)"><path fill="#ffffff" d="M 311.769531 321.328125 C 311.804688 321.328125 311.84375 321.328125 311.898438 321.308594 L 196.03125 233.355469 C 191.011719 229.546875 183.988281 229.546875 178.96875 233.371094 L 63.117188 321.308594 C 63.15625 321.328125 63.195312 321.328125 63.230469 321.328125 L 311.769531 321.328125 " fill-opacity="1" fill-rule="nonzero"/></g><g clip-path="url(#852b137601)"><path fill="#ffffff" d="M 162.445312 233.914062 L 53.671875 149.449219 L 53.671875 311.863281 C 53.671875 313.261719 54.007812 314.605469 54.566406 315.800781 L 162.445312 233.914062 " fill-opacity="1" fill-rule="nonzero"/></g><g clip-path="url(#fe9f9b0906)"><path fill="#ffffff" d="M 321.328125 149.449219 L 212.554688 233.914062 L 320.433594 315.800781 C 320.992188 314.605469 321.328125 313.261719 321.328125 311.863281 L 321.328125 149.449219 " fill-opacity="1" fill-rule="nonzero"/></g><path fill="#ffffff" d="M 77.570312 155.910156 L 77.570312 126.988281 L 57.796875 140.527344 C 57.796875 140.542969 57.796875 140.542969 57.796875 140.542969 L 77.570312 155.910156 " fill-opacity="1" fill-rule="nonzero"/><path fill="#ffffff" d="M 317.21875 140.542969 L 297.429688 126.988281 L 297.429688 155.910156 Z M 317.21875 140.542969 " fill-opacity="1" fill-rule="nonzero"/><g clip-path="url(#f0c8c62ce7)"><path fill="#ffffff" d="M 134.925781 173.160156 C 134.925781 170.527344 137.070312 168.382812 139.703125 168.382812 L 235.296875 168.382812 C 237.929688 168.382812 240.074219 170.527344 240.074219 173.160156 C 240.074219 175.792969 237.929688 177.941406 235.296875 177.941406 L 139.703125 177.941406 C 137.070312 177.941406 134.925781 175.792969 134.925781 173.160156 Z M 106.246094 149.261719 C 106.246094 146.632812 108.394531 144.484375 111.027344 144.484375 L 263.972656 144.484375 C 266.605469 144.484375 268.753906 146.632812 268.753906 149.261719 C 268.753906 151.894531 266.605469 154.042969 263.972656 154.042969 L 111.027344 154.042969 C 108.394531 154.042969 106.246094 151.894531 106.246094 149.261719 Z M 106.246094 101.46875 L 106.246094 77.570312 C 106.246094 74.9375 108.394531 72.789062 111.027344 72.789062 L 122.976562 72.789062 C 132.199219 72.789062 139.703125 80.296875 139.703125 89.519531 C 139.703125 94.558594 137.40625 99.039062 133.878906 102.101562 C 137.464844 105.574219 139.703125 110.429688 139.703125 115.804688 L 139.703125 125.367188 C 139.703125 127.996094 137.558594 130.144531 134.925781 130.144531 C 132.292969 130.144531 130.144531 127.996094 130.144531 125.367188 L 130.144531 115.804688 C 130.144531 110.542969 125.851562 106.246094 120.585938 106.246094 L 115.804688 106.246094 L 115.804688 125.367188 C 115.804688 127.996094 113.660156 130.144531 111.027344 130.144531 C 108.394531 130.144531 106.246094 127.996094 106.246094 125.367188 Z M 165.992188 72.789062 C 173.90625 72.789062 180.816406 78.410156 182.382812 86.175781 C 182.90625 88.773438 181.246094 91.292969 178.648438 91.816406 C 176.035156 92.320312 173.554688 90.65625 173.011719 88.082031 C 172.339844 84.757812 169.390625 82.347656 165.992188 82.347656 C 162.035156 82.347656 158.824219 85.5625 158.824219 89.519531 C 158.824219 93.476562 162.035156 96.6875 165.992188 96.6875 C 175.214844 96.6875 182.71875 104.195312 182.71875 113.417969 C 182.71875 122.640625 175.214844 130.144531 165.992188 130.144531 C 158.074219 130.144531 151.167969 124.523438 149.597656 116.757812 C 149.078125 114.164062 150.738281 111.644531 153.332031 111.121094 C 155.929688 110.632812 158.429688 112.277344 158.972656 114.855469 C 159.644531 118.175781 162.59375 120.585938 165.992188 120.585938 C 169.949219 120.585938 173.160156 117.375 173.160156 113.417969 C 173.160156 109.457031 169.949219 106.246094 165.992188 106.246094 C 156.769531 106.246094 149.261719 98.742188 149.261719 89.519531 C 149.261719 80.296875 156.769531 72.789062 165.992188 72.789062 Z M 196.21875 72.863281 C 198.8125 72.398438 201.316406 74.132812 201.765625 76.730469 L 209.007812 117.335938 L 216.253906 76.730469 C 216.71875 74.132812 219.203125 72.398438 221.796875 72.863281 C 224.390625 73.332031 226.128906 75.816406 225.660156 78.410156 L 217.746094 122.828125 C 216.960938 127.140625 213.375 130.144531 209.007812 130.144531 C 204.640625 130.144531 201.054688 127.140625 200.269531 122.828125 L 192.355469 78.410156 C 191.886719 75.816406 193.625 73.332031 196.21875 72.863281 Z M 235.296875 101.46875 L 235.296875 77.570312 C 235.296875 74.9375 237.441406 72.789062 240.074219 72.789062 L 252.023438 72.789062 C 261.246094 72.789062 268.753906 80.296875 268.753906 89.519531 C 268.753906 98.742188 261.246094 106.246094 252.023438 106.246094 L 244.855469 106.246094 L 244.855469 125.367188 C 244.855469 127.996094 242.707031 130.144531 240.074219 130.144531 C 237.441406 130.144531 235.296875 127.996094 235.296875 125.367188 Z M 173.179688 225.753906 C 181.617188 219.351562 193.382812 219.351562 201.800781 225.753906 L 204.675781 227.921875 L 287.871094 163.339844 L 287.871094 58.453125 C 287.871094 55.820312 285.722656 53.671875 283.089844 53.671875 L 91.910156 53.671875 C 89.277344 53.671875 87.128906 55.820312 87.128906 58.453125 L 87.128906 163.339844 L 170.324219 227.921875 L 173.179688 225.753906 " fill-opacity="1" fill-rule="nonzero"/></g><path fill="#ffffff" d="M 259.195312 89.519531 C 259.195312 85.5625 255.980469 82.347656 252.023438 82.347656 L 244.855469 82.347656 L 244.855469 96.6875 L 252.023438 96.6875 C 255.980469 96.6875 259.195312 93.476562 259.195312 89.519531 " fill-opacity="1" fill-rule="nonzero"/><path fill="#ffffff" d="M 122.976562 96.6875 C 126.933594 96.6875 130.144531 93.476562 130.144531 89.519531 C 130.144531 85.5625 126.933594 82.347656 122.976562 82.347656 L 115.804688 82.347656 L 115.804688 96.6875 L 122.976562 96.6875 " fill-opacity="1" fill-rule="nonzero"/></svg>