<svg xmlns="http://www.w3.org/2000/svg" xmlns:xlink="http://www.w3.org/1999/xlink" width="500" zoomAndPan="magnify" viewBox="0 0 375 374.999991" height="500" preserveAspectRatio="xMidYMid meet" version="1.0"><defs><clipPath id="d4b8e8669e"><path d="M 11.546875 36.179688 L 363.296875 36.179688 L 363.296875 336 L 11.546875 336 Z M 11.546875 36.179688 " clip-rule="nonzero"/></clipPath></defs><path fill="#ffffff" d="M 218.511719 160.238281 C 218.511719 161.253906 218.464844 162.265625 218.363281 163.277344 C 218.265625 164.289062 218.113281 165.292969 217.917969 166.289062 C 217.71875 167.285156 217.472656 168.269531 217.175781 169.242188 C 216.882812 170.214844 216.539062 171.167969 216.152344 172.105469 C 215.761719 173.046875 215.328125 173.960938 214.851562 174.859375 C 214.371094 175.753906 213.851562 176.625 213.285156 177.46875 C 212.722656 178.3125 212.117188 179.128906 211.472656 179.914062 C 210.828125 180.699219 210.148438 181.449219 209.429688 182.167969 C 208.710938 182.886719 207.957031 183.566406 207.171875 184.210938 C 206.386719 184.855469 205.574219 185.460938 204.730469 186.027344 C 203.882812 186.589844 203.015625 187.113281 202.117188 187.589844 C 201.222656 188.070312 200.304688 188.503906 199.367188 188.890625 C 198.429688 189.28125 197.472656 189.621094 196.5 189.917969 C 195.527344 190.210938 194.542969 190.457031 193.546875 190.65625 C 192.550781 190.855469 191.546875 191.003906 190.539062 191.101562 C 189.527344 191.203125 188.511719 191.253906 187.496094 191.253906 C 186.480469 191.253906 185.46875 191.203125 184.457031 191.101562 C 183.445312 191.003906 182.441406 190.855469 181.445312 190.65625 C 180.449219 190.457031 179.464844 190.210938 178.496094 189.917969 C 177.523438 189.621094 176.566406 189.28125 175.628906 188.890625 C 174.691406 188.503906 173.773438 188.070312 172.878906 187.589844 C 171.980469 187.113281 171.113281 186.589844 170.265625 186.027344 C 169.421875 185.460938 168.605469 184.855469 167.820312 184.210938 C 167.035156 183.566406 166.285156 182.886719 165.566406 182.167969 C 164.847656 181.449219 164.167969 180.699219 163.523438 179.914062 C 162.878906 179.128906 162.273438 178.3125 161.710938 177.46875 C 161.144531 176.625 160.625 175.753906 160.144531 174.859375 C 159.667969 173.960938 159.234375 173.046875 158.84375 172.105469 C 158.453125 171.167969 158.113281 170.214844 157.816406 169.242188 C 157.523438 168.269531 157.277344 167.285156 157.078125 166.289062 C 156.878906 165.292969 156.730469 164.289062 156.632812 163.277344 C 156.53125 162.265625 156.484375 161.253906 156.484375 160.238281 C 156.484375 159.222656 156.53125 158.207031 156.632812 157.199219 C 156.730469 156.1875 156.878906 155.183594 157.078125 154.1875 C 157.277344 153.191406 157.523438 152.207031 157.820312 151.234375 C 158.113281 150.261719 158.453125 149.308594 158.84375 148.367188 C 159.234375 147.429688 159.667969 146.511719 160.144531 145.617188 C 160.625 144.722656 161.144531 143.851562 161.710938 143.007812 C 162.273438 142.164062 162.878906 141.347656 163.523438 140.5625 C 164.167969 139.777344 164.847656 139.023438 165.566406 138.308594 C 166.285156 137.589844 167.035156 136.90625 167.820312 136.261719 C 168.605469 135.617188 169.421875 135.015625 170.265625 134.449219 C 171.113281 133.886719 171.980469 133.363281 172.878906 132.886719 C 173.773438 132.40625 174.691406 131.972656 175.628906 131.582031 C 176.566406 131.195312 177.523438 130.851562 178.496094 130.558594 C 179.464844 130.261719 180.449219 130.015625 181.445312 129.820312 C 182.441406 129.621094 183.445312 129.472656 184.457031 129.371094 C 185.46875 129.273438 186.480469 129.222656 187.496094 129.222656 C 188.511719 129.222656 189.527344 129.273438 190.539062 129.371094 C 191.546875 129.472656 192.550781 129.621094 193.546875 129.820312 C 194.542969 130.015625 195.527344 130.261719 196.5 130.558594 C 197.472656 130.851562 198.429688 131.195312 199.367188 131.582031 C 200.304688 131.972656 201.222656 132.40625 202.117188 132.886719 C 203.015625 133.363281 203.882812 133.886719 204.730469 134.449219 C 205.574219 135.015625 206.386719 135.617188 207.171875 136.261719 C 207.957031 136.90625 208.710938 137.589844 209.429688 138.308594 C 210.148438 139.023438 210.828125 139.777344 211.472656 140.5625 C 212.117188 141.347656 212.722656 142.164062 213.285156 143.007812 C 213.851562 143.851562 214.371094 144.722656 214.851562 145.617188 C 215.328125 146.511719 215.761719 147.429688 216.152344 148.367188 C 216.539062 149.308594 216.882812 150.261719 217.175781 151.234375 C 217.472656 152.207031 217.71875 153.191406 217.917969 154.1875 C 218.113281 155.183594 218.265625 156.1875 218.363281 157.199219 C 218.464844 158.207031 218.511719 159.222656 218.511719 160.238281 Z M 218.511719 160.238281 " fill-opacity="1" fill-rule="nonzero"/><path fill="#ffffff" d="M 301.21875 160.238281 C 301.21875 161.253906 301.167969 162.265625 301.070312 163.277344 C 300.96875 164.289062 300.820312 165.292969 300.625 166.289062 C 300.425781 167.285156 300.179688 168.269531 299.882812 169.242188 C 299.589844 170.214844 299.246094 171.167969 298.859375 172.105469 C 298.46875 173.046875 298.035156 173.960938 297.558594 174.859375 C 297.078125 175.753906 296.554688 176.625 295.992188 177.46875 C 295.429688 178.3125 294.824219 179.128906 294.179688 179.914062 C 293.535156 180.699219 292.851562 181.449219 292.136719 182.167969 C 291.417969 182.886719 290.664062 183.566406 289.878906 184.210938 C 289.09375 184.855469 288.28125 185.460938 287.433594 186.027344 C 286.589844 186.589844 285.71875 187.113281 284.824219 187.589844 C 283.929688 188.070312 283.011719 188.503906 282.074219 188.890625 C 281.132812 189.28125 280.179688 189.621094 279.207031 189.917969 C 278.234375 190.210938 277.25 190.457031 276.253906 190.65625 C 275.257812 190.855469 274.253906 191.003906 273.246094 191.101562 C 272.234375 191.203125 271.21875 191.253906 270.203125 191.253906 C 269.1875 191.253906 268.175781 191.203125 267.164062 191.101562 C 266.152344 191.003906 265.148438 190.855469 264.152344 190.65625 C 263.15625 190.457031 262.171875 190.210938 261.199219 189.917969 C 260.230469 189.621094 259.273438 189.28125 258.335938 188.890625 C 257.398438 188.503906 256.480469 188.070312 255.582031 187.589844 C 254.6875 187.113281 253.816406 186.589844 252.972656 186.027344 C 252.128906 185.460938 251.3125 184.855469 250.527344 184.210938 C 249.742188 183.566406 248.992188 182.886719 248.273438 182.167969 C 247.554688 181.449219 246.875 180.699219 246.230469 179.914062 C 245.585938 179.128906 244.980469 178.3125 244.417969 177.46875 C 243.851562 176.625 243.332031 175.753906 242.851562 174.859375 C 242.371094 173.960938 241.9375 173.046875 241.550781 172.105469 C 241.160156 171.167969 240.820312 170.214844 240.523438 169.242188 C 240.230469 168.269531 239.984375 167.285156 239.785156 166.289062 C 239.585938 165.292969 239.4375 164.289062 239.339844 163.277344 C 239.238281 162.265625 239.1875 161.253906 239.1875 160.238281 C 239.1875 159.222656 239.238281 158.207031 239.339844 157.199219 C 239.4375 156.1875 239.585938 155.183594 239.785156 154.1875 C 239.984375 153.191406 240.230469 152.207031 240.523438 151.234375 C 240.820312 150.261719 241.160156 149.308594 241.550781 148.367188 C 241.9375 147.429688 242.371094 146.511719 242.851562 145.617188 C 243.332031 144.722656 243.851562 143.851562 244.417969 143.007812 C 244.980469 142.164062 245.585938 141.347656 246.230469 140.5625 C 246.875 139.777344 247.554688 139.023438 248.273438 138.308594 C 248.992188 137.589844 249.742188 136.90625 250.527344 136.261719 C 251.3125 135.617188 252.128906 135.015625 252.972656 134.449219 C 253.816406 133.886719 254.6875 133.363281 255.582031 132.886719 C 256.480469 132.40625 257.398438 131.972656 258.335938 131.582031 C 259.273438 131.195312 260.230469 130.851562 261.199219 130.558594 C 262.171875 130.261719 263.15625 130.015625 264.152344 129.820312 C 265.148438 129.621094 266.152344 129.472656 267.164062 129.371094 C 268.175781 129.273438 269.1875 129.222656 270.203125 129.222656 C 271.21875 129.222656 272.234375 129.273438 273.246094 129.371094 C 274.253906 129.472656 275.257812 129.621094 276.253906 129.820312 C 277.25 130.015625 278.234375 130.261719 279.207031 130.558594 C 280.179688 130.851562 281.132812 131.195312 282.074219 131.582031 C 283.011719 131.972656 283.929688 132.40625 284.824219 132.886719 C 285.71875 133.363281 286.589844 133.886719 287.433594 134.449219 C 288.28125 135.015625 289.09375 135.617188 289.878906 136.261719 C 290.664062 136.90625 291.417969 137.589844 292.136719 138.308594 C 292.851562 139.023438 293.535156 139.777344 294.179688 140.5625 C 294.824219 141.347656 295.429688 142.164062 295.992188 143.007812 C 296.554688 143.851562 297.078125 144.722656 297.558594 145.617188 C 298.035156 146.511719 298.46875 147.429688 298.859375 148.367188 C 299.246094 149.308594 299.589844 150.261719 299.882812 151.234375 C 300.179688 152.207031 300.425781 153.191406 300.625 154.1875 C 300.820312 155.183594 300.96875 156.1875 301.070312 157.199219 C 301.167969 158.207031 301.21875 159.222656 301.21875 160.238281 Z M 301.21875 160.238281 " fill-opacity="1" fill-rule="nonzero"/><path fill="#ffffff" d="M 135.804688 160.238281 C 135.804688 161.253906 135.757812 162.265625 135.65625 163.277344 C 135.558594 164.289062 135.410156 165.292969 135.210938 166.289062 C 135.011719 167.285156 134.765625 168.269531 134.472656 169.242188 C 134.175781 170.214844 133.835938 171.167969 133.445312 172.105469 C 133.058594 173.046875 132.621094 173.960938 132.144531 174.859375 C 131.664062 175.753906 131.144531 176.625 130.578125 177.46875 C 130.015625 178.3125 129.410156 179.128906 128.765625 179.914062 C 128.121094 180.699219 127.441406 181.449219 126.722656 182.167969 C 126.003906 182.886719 125.253906 183.566406 124.46875 184.210938 C 123.683594 184.855469 122.867188 185.460938 122.023438 186.027344 C 121.175781 186.589844 120.308594 187.113281 119.410156 187.589844 C 118.515625 188.070312 117.597656 188.503906 116.660156 188.890625 C 115.722656 189.28125 114.765625 189.621094 113.792969 189.917969 C 112.824219 190.210938 111.839844 190.457031 110.84375 190.65625 C 109.847656 190.855469 108.84375 191.003906 107.832031 191.101562 C 106.820312 191.203125 105.808594 191.253906 104.792969 191.253906 C 103.777344 191.253906 102.761719 191.203125 101.75 191.101562 C 100.742188 191.003906 99.738281 190.855469 98.742188 190.65625 C 97.746094 190.457031 96.761719 190.210938 95.789062 189.917969 C 94.816406 189.621094 93.859375 189.28125 92.921875 188.890625 C 91.984375 188.503906 91.066406 188.070312 90.171875 187.589844 C 89.273438 187.113281 88.40625 186.589844 87.558594 186.027344 C 86.714844 185.460938 85.902344 184.855469 85.117188 184.210938 C 84.332031 183.566406 83.578125 182.886719 82.859375 182.167969 C 82.140625 181.449219 81.460938 180.699219 80.816406 179.914062 C 80.171875 179.128906 79.566406 178.3125 79.003906 177.46875 C 78.4375 176.625 77.917969 175.753906 77.4375 174.859375 C 76.960938 173.960938 76.527344 173.046875 76.136719 172.105469 C 75.75 171.167969 75.40625 170.214844 75.113281 169.242188 C 74.816406 168.269531 74.570312 167.285156 74.371094 166.289062 C 74.175781 165.292969 74.023438 164.289062 73.925781 163.277344 C 73.828125 162.265625 73.777344 161.253906 73.777344 160.238281 C 73.777344 159.222656 73.828125 158.207031 73.925781 157.199219 C 74.023438 156.1875 74.175781 155.183594 74.371094 154.1875 C 74.570312 153.191406 74.816406 152.207031 75.113281 151.234375 C 75.40625 150.261719 75.75 149.308594 76.136719 148.367188 C 76.527344 147.429688 76.960938 146.511719 77.4375 145.617188 C 77.917969 144.722656 78.4375 143.851562 79.003906 143.007812 C 79.566406 142.164062 80.171875 141.347656 80.816406 140.5625 C 81.460938 139.777344 82.140625 139.023438 82.859375 138.308594 C 83.578125 137.589844 84.332031 136.90625 85.117188 136.261719 C 85.902344 135.617188 86.714844 135.015625 87.558594 134.449219 C 88.40625 133.886719 89.273438 133.363281 90.171875 132.886719 C 91.066406 132.40625 91.984375 131.972656 92.921875 131.582031 C 93.859375 131.195312 94.816406 130.851562 95.789062 130.558594 C 96.761719 130.261719 97.746094 130.015625 98.742188 129.820312 C 99.738281 129.621094 100.742188 129.472656 101.75 129.371094 C 102.761719 129.273438 103.777344 129.222656 104.792969 129.222656 C 105.808594 129.222656 106.820312 129.273438 107.832031 129.371094 C 108.84375 129.472656 109.847656 129.621094 110.84375 129.820312 C 111.839844 130.015625 112.824219 130.261719 113.792969 130.558594 C 114.765625 130.851562 115.722656 131.195312 116.660156 131.582031 C 117.597656 131.972656 118.515625 132.40625 119.410156 132.886719 C 120.308594 133.363281 121.175781 133.886719 122.023438 134.449219 C 122.867188 135.015625 123.683594 135.617188 124.46875 136.261719 C 125.253906 136.90625 126.003906 137.589844 126.722656 138.308594 C 127.441406 139.023438 128.121094 139.777344 128.765625 140.5625 C 129.410156 141.347656 130.015625 142.164062 130.578125 143.007812 C 131.144531 143.851562 131.664062 144.722656 132.144531 145.617188 C 132.621094 146.511719 133.058594 147.429688 133.445312 148.367188 C 133.835938 149.308594 134.175781 150.261719 134.472656 151.234375 C 134.765625 152.207031 135.011719 153.191406 135.210938 154.1875 C 135.410156 155.183594 135.558594 156.1875 135.65625 157.199219 C 135.757812 158.207031 135.804688 159.222656 135.804688 160.238281 Z M 135.804688 160.238281 " fill-opacity="1" fill-rule="nonzero"/><g clip-path="url(#d4b8e8669e)"><path fill="#ffffff" d="M 306.042969 36.179688 L 68.953125 36.179688 C 37.410156 36.179688 11.746094 61.839844 11.746094 93.382812 L 11.746094 227.09375 C 11.746094 258.636719 37.410156 284.296875 68.953125 284.296875 L 104.792969 284.296875 L 104.792969 325.652344 C 104.792969 333.949219 114.066406 338.789062 120.863281 334.253906 L 195.796875 284.296875 L 306.042969 284.296875 C 337.585938 284.296875 363.25 258.636719 363.25 227.09375 L 363.25 93.382812 C 363.25 61.839844 337.585938 36.179688 306.042969 36.179688 Z M 342.574219 227.09375 C 342.574219 247.234375 326.1875 263.621094 306.042969 263.621094 L 192.667969 263.621094 C 190.625 263.621094 188.632812 264.226562 186.933594 265.359375 L 125.46875 306.332031 L 125.46875 273.960938 C 125.46875 268.25 120.839844 263.621094 115.128906 263.621094 L 68.953125 263.621094 C 48.808594 263.621094 32.421875 247.234375 32.421875 227.09375 L 32.421875 93.382812 C 32.421875 73.242188 48.808594 56.855469 68.953125 56.855469 L 306.042969 56.855469 C 326.1875 56.855469 342.574219 73.242188 342.574219 93.382812 Z M 342.574219 227.09375 " fill-opacity="1" fill-rule="nonzero"/></g></svg>