<svg xmlns="http://www.w3.org/2000/svg" xmlns:xlink="http://www.w3.org/1999/xlink" width="300" zoomAndPan="magnify" viewBox="0 0 224.87999 225" height="300" preserveAspectRatio="xMidYMid meet" version="1.0"><defs><clipPath id="9df463616d"><path d="M 5.667969 41.296875 L 219.199219 41.296875 L 219.199219 224 L 5.667969 224 Z M 5.667969 41.296875 " clip-rule="nonzero"/></clipPath><clipPath id="e068737e6d"><path d="M 162.746094 102.59375 L 172.652344 102.59375 L 172.652344 112.5 L 162.746094 112.5 Z M 162.746094 102.59375 " clip-rule="nonzero"/></clipPath><clipPath id="e9be1c3e50"><path d="M 167.699219 102.59375 C 164.964844 102.59375 162.746094 104.8125 162.746094 107.546875 C 162.746094 110.28125 164.964844 112.5 167.699219 112.5 C 170.433594 112.5 172.652344 110.28125 172.652344 107.546875 C 172.652344 104.8125 170.433594 102.59375 167.699219 102.59375 Z M 167.699219 102.59375 " clip-rule="nonzero"/></clipPath></defs><path fill="#ffffff" d="M 93.613281 116.574219 C 93.613281 117.191406 93.644531 117.804688 93.707031 118.417969 C 93.765625 119.03125 93.855469 119.640625 93.976562 120.246094 C 94.097656 120.847656 94.246094 121.445312 94.425781 122.035156 C 94.605469 122.625 94.8125 123.207031 95.046875 123.777344 C 95.285156 124.34375 95.546875 124.902344 95.835938 125.445312 C 96.128906 125.988281 96.445312 126.515625 96.785156 127.027344 C 97.128906 127.542969 97.496094 128.035156 97.886719 128.511719 C 98.277344 128.988281 98.691406 129.445312 99.128906 129.882812 C 99.5625 130.316406 100.019531 130.730469 100.496094 131.121094 C 100.972656 131.511719 101.464844 131.878906 101.980469 132.222656 C 102.492188 132.5625 103.019531 132.878906 103.5625 133.171875 C 104.105469 133.460938 104.664062 133.726562 105.234375 133.960938 C 105.800781 134.195312 106.382812 134.402344 106.972656 134.582031 C 107.5625 134.761719 108.160156 134.910156 108.761719 135.03125 C 109.367188 135.152344 109.976562 135.242188 110.589844 135.300781 C 111.203125 135.363281 111.820312 135.394531 112.433594 135.394531 C 113.050781 135.394531 113.667969 135.363281 114.28125 135.300781 C 114.894531 135.242188 115.503906 135.152344 116.105469 135.03125 C 116.710938 134.910156 117.308594 134.761719 117.898438 134.582031 C 118.488281 134.402344 119.066406 134.195312 119.636719 133.960938 C 120.207031 133.726562 120.761719 133.460938 121.308594 133.171875 C 121.851562 132.878906 122.378906 132.5625 122.890625 132.222656 C 123.402344 131.878906 123.898438 131.511719 124.375 131.121094 C 124.851562 130.730469 125.308594 130.316406 125.742188 129.882812 C 126.179688 129.445312 126.59375 128.988281 126.984375 128.511719 C 127.375 128.035156 127.742188 127.542969 128.082031 127.027344 C 128.425781 126.515625 128.742188 125.988281 129.03125 125.445312 C 129.324219 124.902344 129.585938 124.34375 129.824219 123.777344 C 130.058594 123.207031 130.265625 122.625 130.445312 122.035156 C 130.625 121.445312 130.773438 120.847656 130.894531 120.246094 C 131.011719 119.640625 131.105469 119.03125 131.164062 118.417969 C 131.226562 117.804688 131.253906 117.191406 131.253906 116.574219 C 131.253906 115.957031 131.226562 115.34375 131.164062 114.730469 C 131.105469 114.117188 131.011719 113.507812 130.894531 112.902344 C 130.773438 112.296875 130.625 111.699219 130.445312 111.109375 C 130.265625 110.519531 130.058594 109.941406 129.824219 109.371094 C 129.585938 108.800781 129.324219 108.246094 129.03125 107.703125 C 128.742188 107.15625 128.425781 106.628906 128.082031 106.117188 C 127.742188 105.605469 127.375 105.109375 126.984375 104.632812 C 126.59375 104.15625 126.179688 103.703125 125.742188 103.265625 C 125.308594 102.828125 124.851562 102.417969 124.375 102.027344 C 123.898438 101.632812 123.402344 101.269531 122.890625 100.925781 C 122.378906 100.582031 121.851562 100.265625 121.308594 99.976562 C 120.761719 99.683594 120.207031 99.421875 119.636719 99.1875 C 119.066406 98.949219 118.488281 98.742188 117.898438 98.5625 C 117.308594 98.386719 116.710938 98.234375 116.105469 98.113281 C 115.503906 97.996094 114.894531 97.90625 114.28125 97.84375 C 113.667969 97.785156 113.050781 97.753906 112.433594 97.753906 C 111.820312 97.753906 111.203125 97.785156 110.589844 97.84375 C 109.976562 97.90625 109.367188 97.996094 108.761719 98.113281 C 108.160156 98.234375 107.5625 98.386719 106.972656 98.5625 C 106.382812 98.742188 105.800781 98.949219 105.234375 99.1875 C 104.664062 99.421875 104.105469 99.683594 103.5625 99.976562 C 103.019531 100.265625 102.492188 100.582031 101.980469 100.925781 C 101.464844 101.269531 100.972656 101.632812 100.496094 102.027344 C 100.019531 102.417969 99.5625 102.828125 99.128906 103.265625 C 98.691406 103.703125 98.277344 104.15625 97.886719 104.632812 C 97.496094 105.109375 97.128906 105.605469 96.785156 106.117188 C 96.445312 106.628906 96.128906 107.15625 95.835938 107.703125 C 95.546875 108.246094 95.285156 108.800781 95.046875 109.371094 C 94.8125 109.941406 94.605469 110.519531 94.425781 111.109375 C 94.246094 111.699219 94.097656 112.296875 93.976562 112.902344 C 93.855469 113.507812 93.765625 114.117188 93.707031 114.730469 C 93.644531 115.34375 93.613281 115.957031 93.613281 116.574219 Z M 93.613281 116.574219 " fill-opacity="1" fill-rule="nonzero"/><path fill="#ffffff" d="M 43.429688 116.574219 C 43.429688 117.191406 43.460938 117.804688 43.519531 118.417969 C 43.578125 119.03125 43.671875 119.640625 43.789062 120.246094 C 43.910156 120.847656 44.058594 121.445312 44.238281 122.035156 C 44.417969 122.625 44.625 123.207031 44.863281 123.777344 C 45.097656 124.34375 45.359375 124.902344 45.652344 125.445312 C 45.941406 125.988281 46.257812 126.515625 46.601562 127.027344 C 46.941406 127.542969 47.308594 128.035156 47.699219 128.511719 C 48.089844 128.988281 48.503906 129.445312 48.941406 129.882812 C 49.375 130.316406 49.832031 130.730469 50.308594 131.121094 C 50.785156 131.511719 51.28125 131.878906 51.792969 132.222656 C 52.304688 132.5625 52.832031 132.878906 53.378906 133.171875 C 53.921875 133.460938 54.476562 133.726562 55.046875 133.960938 C 55.617188 134.195312 56.195312 134.402344 56.785156 134.582031 C 57.375 134.761719 57.972656 134.910156 58.578125 135.03125 C 59.179688 135.152344 59.789062 135.242188 60.402344 135.300781 C 61.015625 135.363281 61.632812 135.394531 62.25 135.394531 C 62.863281 135.394531 63.480469 135.363281 64.09375 135.300781 C 64.707031 135.242188 65.316406 135.152344 65.921875 135.03125 C 66.523438 134.910156 67.121094 134.761719 67.710938 134.582031 C 68.300781 134.402344 68.882812 134.195312 69.449219 133.960938 C 70.019531 133.726562 70.578125 133.460938 71.121094 133.171875 C 71.664062 132.878906 72.191406 132.5625 72.703125 132.222656 C 73.21875 131.878906 73.710938 131.511719 74.1875 131.121094 C 74.664062 130.730469 75.121094 130.316406 75.554688 129.882812 C 75.992188 129.445312 76.40625 128.988281 76.796875 128.511719 C 77.1875 128.035156 77.554688 127.542969 77.898438 127.027344 C 78.238281 126.515625 78.554688 125.988281 78.847656 125.445312 C 79.136719 124.902344 79.398438 124.34375 79.636719 123.777344 C 79.871094 123.207031 80.078125 122.625 80.257812 122.035156 C 80.4375 121.445312 80.585938 120.847656 80.707031 120.246094 C 80.828125 119.640625 80.917969 119.03125 80.976562 118.417969 C 81.039062 117.804688 81.070312 117.191406 81.070312 116.574219 C 81.070312 115.957031 81.039062 115.34375 80.976562 114.730469 C 80.917969 114.117188 80.828125 113.507812 80.707031 112.902344 C 80.585938 112.296875 80.4375 111.699219 80.257812 111.109375 C 80.078125 110.519531 79.871094 109.941406 79.636719 109.371094 C 79.398438 108.800781 79.136719 108.246094 78.847656 107.703125 C 78.554688 107.15625 78.238281 106.628906 77.898438 106.117188 C 77.554688 105.605469 77.1875 105.109375 76.796875 104.632812 C 76.40625 104.15625 75.992188 103.703125 75.554688 103.265625 C 75.121094 102.828125 74.664062 102.417969 74.1875 102.027344 C 73.710938 101.632812 73.21875 101.269531 72.703125 100.925781 C 72.191406 100.582031 71.664062 100.265625 71.121094 99.976562 C 70.578125 99.683594 70.019531 99.421875 69.449219 99.1875 C 68.882812 98.949219 68.300781 98.742188 67.710938 98.5625 C 67.121094 98.386719 66.523438 98.234375 65.921875 98.113281 C 65.316406 97.996094 64.707031 97.90625 64.09375 97.84375 C 63.480469 97.785156 62.863281 97.753906 62.25 97.753906 C 61.632812 97.753906 61.015625 97.785156 60.402344 97.84375 C 59.789062 97.90625 59.179688 97.996094 58.578125 98.113281 C 57.972656 98.234375 57.375 98.386719 56.785156 98.5625 C 56.195312 98.742188 55.617188 98.949219 55.046875 99.1875 C 54.476562 99.421875 53.921875 99.683594 53.378906 99.976562 C 52.832031 100.265625 52.304688 100.582031 51.792969 100.925781 C 51.28125 101.269531 50.785156 101.632812 50.308594 102.027344 C 49.832031 102.417969 49.375 102.828125 48.941406 103.265625 C 48.503906 103.703125 48.089844 104.15625 47.699219 104.632812 C 47.308594 105.109375 46.941406 105.605469 46.601562 106.117188 C 46.257812 106.628906 45.941406 107.15625 45.652344 107.703125 C 45.359375 108.246094 45.097656 108.800781 44.863281 109.371094 C 44.625 109.941406 44.417969 110.519531 44.238281 111.109375 C 44.058594 111.699219 43.910156 112.296875 43.789062 112.902344 C 43.671875 113.507812 43.578125 114.117188 43.519531 114.730469 C 43.460938 115.34375 43.429688 115.957031 43.429688 116.574219 Z M 43.429688 116.574219 " fill-opacity="1" fill-rule="nonzero"/><path fill="#ffffff" d="M 143.800781 116.574219 C 143.800781 117.191406 143.832031 117.804688 143.890625 118.417969 C 143.953125 119.03125 144.042969 119.640625 144.164062 120.246094 C 144.285156 120.847656 144.433594 121.445312 144.613281 122.035156 C 144.789062 122.625 145 123.207031 145.234375 123.777344 C 145.46875 124.34375 145.734375 124.902344 146.023438 125.445312 C 146.3125 125.988281 146.628906 126.515625 146.972656 127.027344 C 147.316406 127.542969 147.683594 128.035156 148.074219 128.511719 C 148.464844 128.988281 148.878906 129.445312 149.3125 129.882812 C 149.75 130.316406 150.207031 130.730469 150.683594 131.121094 C 151.160156 131.511719 151.652344 131.878906 152.164062 132.222656 C 152.679688 132.5625 153.207031 132.878906 153.75 133.171875 C 154.292969 133.460938 154.851562 133.726562 155.417969 133.960938 C 155.988281 134.195312 156.570312 134.402344 157.160156 134.582031 C 157.75 134.761719 158.34375 134.910156 158.949219 135.03125 C 159.554688 135.152344 160.164062 135.242188 160.777344 135.300781 C 161.390625 135.363281 162.003906 135.394531 162.621094 135.394531 C 163.238281 135.394531 163.851562 135.363281 164.464844 135.300781 C 165.078125 135.242188 165.6875 135.152344 166.292969 135.03125 C 166.898438 134.910156 167.496094 134.761719 168.085938 134.582031 C 168.675781 134.402344 169.253906 134.195312 169.824219 133.960938 C 170.394531 133.726562 170.949219 133.460938 171.492188 133.171875 C 172.035156 132.878906 172.566406 132.5625 173.078125 132.222656 C 173.589844 131.878906 174.085938 131.511719 174.5625 131.121094 C 175.035156 130.730469 175.492188 130.316406 175.929688 129.882812 C 176.363281 129.445312 176.777344 128.988281 177.167969 128.511719 C 177.558594 128.035156 177.925781 127.542969 178.269531 127.027344 C 178.613281 126.515625 178.929688 125.988281 179.21875 125.445312 C 179.507812 124.902344 179.773438 124.34375 180.007812 123.777344 C 180.246094 123.207031 180.453125 122.625 180.632812 122.035156 C 180.808594 121.445312 180.960938 120.847656 181.078125 120.246094 C 181.199219 119.640625 181.289062 119.03125 181.351562 118.417969 C 181.410156 117.804688 181.441406 117.191406 181.441406 116.574219 C 181.441406 115.957031 181.410156 115.34375 181.351562 114.730469 C 181.289062 114.117188 181.199219 113.507812 181.078125 112.902344 C 180.960938 112.296875 180.808594 111.699219 180.632812 111.109375 C 180.453125 110.519531 180.246094 109.941406 180.007812 109.371094 C 179.773438 108.800781 179.507812 108.246094 179.21875 107.703125 C 178.929688 107.15625 178.613281 106.628906 178.269531 106.117188 C 177.925781 105.605469 177.558594 105.109375 177.167969 104.632812 C 176.777344 104.15625 176.363281 103.703125 175.929688 103.265625 C 175.492188 102.828125 175.035156 102.417969 174.5625 102.027344 C 174.085938 101.632812 173.589844 101.269531 173.078125 100.925781 C 172.566406 100.582031 172.035156 100.265625 171.492188 99.976562 C 170.949219 99.683594 170.394531 99.421875 169.824219 99.1875 C 169.253906 98.949219 168.675781 98.742188 168.085938 98.5625 C 167.496094 98.386719 166.898438 98.234375 166.292969 98.113281 C 165.6875 97.996094 165.078125 97.90625 164.464844 97.84375 C 163.851562 97.785156 163.238281 97.753906 162.621094 97.753906 C 162.003906 97.753906 161.390625 97.785156 160.777344 97.84375 C 160.164062 97.90625 159.554688 97.996094 158.949219 98.113281 C 158.34375 98.234375 157.75 98.386719 157.160156 98.5625 C 156.570312 98.742188 155.988281 98.949219 155.417969 99.1875 C 154.851562 99.421875 154.292969 99.683594 153.75 99.976562 C 153.207031 100.265625 152.679688 100.582031 152.164062 100.925781 C 151.652344 101.269531 151.160156 101.632812 150.683594 102.027344 C 150.207031 102.417969 149.75 102.828125 149.3125 103.265625 C 148.878906 103.703125 148.464844 104.15625 148.074219 104.632812 C 147.683594 105.109375 147.316406 105.605469 146.972656 106.117188 C 146.628906 106.628906 146.3125 107.15625 146.023438 107.703125 C 145.734375 108.246094 145.46875 108.800781 145.234375 109.371094 C 145 109.941406 144.789062 110.519531 144.613281 111.109375 C 144.433594 111.699219 144.285156 112.296875 144.164062 112.902344 C 144.042969 113.507812 143.953125 114.117188 143.890625 114.730469 C 143.832031 115.34375 143.800781 115.957031 143.800781 116.574219 Z M 143.800781 116.574219 " fill-opacity="1" fill-rule="nonzero"/><g clip-path="url(#9df463616d)"><path fill="#ffffff" d="M 40.5 41.292969 L 184.367188 41.292969 C 203.507812 41.292969 219.082031 56.867188 219.082031 76.007812 L 219.082031 157.140625 C 219.082031 176.28125 203.507812 191.851562 184.367188 191.851562 L 162.621094 191.851562 L 162.621094 216.945312 C 162.621094 221.980469 156.992188 224.917969 152.867188 222.164062 L 107.398438 191.851562 L 40.5 191.851562 C 21.359375 191.851562 5.789062 176.28125 5.789062 157.140625 L 5.789062 76.007812 C 5.789062 56.867188 21.359375 41.292969 40.5 41.292969 Z M 18.335938 157.140625 C 18.335938 169.363281 28.277344 179.304688 40.5 179.304688 L 109.296875 179.304688 C 110.535156 179.304688 111.746094 179.671875 112.777344 180.359375 L 150.074219 205.226562 L 150.074219 185.578125 C 150.074219 182.113281 152.882812 179.304688 156.347656 179.304688 L 184.367188 179.304688 C 196.589844 179.304688 206.535156 169.363281 206.535156 157.140625 L 206.535156 76.007812 C 206.535156 63.785156 196.589844 53.839844 184.367188 53.839844 L 40.5 53.839844 C 28.277344 53.839844 18.335938 63.785156 18.335938 76.007812 Z M 18.335938 157.140625 " fill-opacity="1" fill-rule="nonzero"/></g><g clip-path="url(#e068737e6d)"><g clip-path="url(#e9be1c3e50)"><path fill="#ffffff" d="M 162.746094 102.59375 L 172.652344 102.59375 L 172.652344 112.5 L 162.746094 112.5 Z M 162.746094 102.59375 " fill-opacity="1" fill-rule="nonzero"/></g></g></svg>