<svg xmlns="http://www.w3.org/2000/svg" xmlns:xlink="http://www.w3.org/1999/xlink" width="500" zoomAndPan="magnify" viewBox="0 0 375 374.999991" height="500" preserveAspectRatio="xMidYMid meet" version="1.0"><defs><g/><clipPath id="1feccb8e7f"><path d="M 10 170 L 365 170 L 365 352.554688 L 10 352.554688 Z M 10 170 " clip-rule="nonzero"/></clipPath><clipPath id="1325be3601"><path d="M 146 246 L 319 246 L 319 352.554688 L 146 352.554688 Z M 146 246 " clip-rule="nonzero"/></clipPath><clipPath id="40ffb26c8f"><path d="M 49 22.554688 L 217 22.554688 L 217 238 L 49 238 Z M 49 22.554688 " clip-rule="nonzero"/></clipPath><clipPath id="c1486d14a7"><path d="M 139 173 L 300 173 L 300 352.554688 L 139 352.554688 Z M 139 173 " clip-rule="nonzero"/></clipPath></defs><g fill="#000000" fill-opacity="1"><g transform="translate(177.569436, 202.502593)"><g><path d="M 10.078125 0.40625 C 8.609375 0.40625 7.257812 0.234375 6.03125 -0.109375 C 4.8125 -0.453125 3.769531 -0.925781 2.90625 -1.53125 C 2.039062 -2.132812 1.398438 -2.828125 0.984375 -3.609375 L 3.984375 -6.859375 L 4.390625 -6.859375 C 5.109375 -5.890625 5.957031 -5.164062 6.9375 -4.6875 C 7.914062 -4.207031 8.976562 -3.96875 10.125 -3.96875 C 11.175781 -3.96875 11.96875 -4.15625 12.5 -4.53125 C 13.03125 -4.90625 13.296875 -5.445312 13.296875 -6.15625 C 13.296875 -6.695312 13.101562 -7.15625 12.71875 -7.53125 C 12.34375 -7.90625 11.722656 -8.195312 10.859375 -8.40625 L 8.015625 -9.078125 C 5.878906 -9.585938 4.316406 -10.363281 3.328125 -11.40625 C 2.347656 -12.457031 1.859375 -13.789062 1.859375 -15.40625 C 1.859375 -16.75 2.195312 -17.914062 2.875 -18.90625 C 3.5625 -19.894531 4.523438 -20.648438 5.765625 -21.171875 C 7.015625 -21.691406 8.46875 -21.953125 10.125 -21.953125 C 12.0625 -21.953125 13.664062 -21.671875 14.9375 -21.109375 C 16.21875 -20.554688 17.21875 -19.8125 17.9375 -18.875 L 15.046875 -15.75 L 14.65625 -15.75 C 14.050781 -16.425781 13.375 -16.921875 12.625 -17.234375 C 11.875 -17.546875 11.039062 -17.703125 10.125 -17.703125 C 7.988281 -17.703125 6.921875 -17.035156 6.921875 -15.703125 C 6.921875 -15.140625 7.117188 -14.679688 7.515625 -14.328125 C 7.910156 -13.984375 8.609375 -13.703125 9.609375 -13.484375 L 12.265625 -12.890625 C 14.453125 -12.421875 16.050781 -11.664062 17.0625 -10.625 C 18.070312 -9.59375 18.578125 -8.207031 18.578125 -6.46875 C 18.578125 -5.101562 18.238281 -3.898438 17.5625 -2.859375 C 16.882812 -1.816406 15.90625 -1.007812 14.625 -0.4375 C 13.351562 0.125 11.835938 0.40625 10.078125 0.40625 Z M 10.078125 0.40625 "/></g></g></g><g clip-path="url(#1feccb8e7f)"><path fill="#57b236" d="M 187.296875 170.648438 L 160.863281 170.773438 C 141.511719 171.074219 122.160156 171.695312 103.15625 172.644531 C 87.785156 173.335938 80.210938 175.847656 78.851562 176.339844 L 78.65625 176.414062 C 75.40625 177.65625 72.296875 179.1875 69.328125 181.007812 C 66.359375 182.824219 63.585938 184.898438 61 187.230469 C 58.414062 189.5625 56.066406 192.113281 53.949219 194.878906 C 51.835938 197.648438 49.992188 200.582031 48.421875 203.691406 C 32.078125 236.90625 21.089844 261.761719 12.769531 284.300781 C 8.476562 295.738281 10.003906 308.519531 17.046875 320.207031 C 25.277344 333.894531 40.183594 344.230469 55.960938 347.191406 C 56.292969 347.253906 56.652344 347.304688 56.976562 347.34375 C 67.039062 348.464844 77.839844 349.066406 78.941406 349.128906 C 114.875 351.414062 151.207031 352.589844 187.296875 352.589844 C 223.382812 352.589844 259.734375 351.441406 295.652344 349.128906 C 296.75 349.066406 307.550781 348.4375 317.613281 347.34375 C 317.960938 347.304688 318.304688 347.253906 318.628906 347.191406 C 334.40625 344.230469 349.316406 333.894531 357.546875 320.207031 C 364.59375 308.492188 366.113281 295.738281 361.824219 284.300781 C 353.53125 261.761719 342.515625 236.914062 326.171875 203.691406 C 324.597656 200.582031 322.753906 197.648438 320.640625 194.878906 C 318.527344 192.113281 316.175781 189.5625 313.589844 187.230469 C 311.007812 184.898438 308.230469 182.824219 305.261719 181.007812 C 302.292969 179.1875 299.183594 177.65625 295.933594 176.414062 L 295.742188 176.339844 C 294.359375 175.847656 286.804688 173.335938 271.4375 172.644531 C 252.453125 171.695312 233.054688 171.074219 213.730469 170.773438 Z M 187.296875 170.648438 " fill-opacity="1" fill-rule="nonzero"/></g><path fill="#99badc" d="M 240.15625 247.472656 L 317.558594 347.34375 C 317.898438 347.304688 318.25 347.253906 318.574219 347.191406 C 334.375 344.230469 349.308594 333.894531 357.550781 320.207031 C 364.609375 308.492188 366.128906 295.738281 361.832031 284.300781 C 353.539062 261.761719 342.480469 236.914062 326.128906 203.691406 C 324.550781 200.582031 322.699219 197.640625 320.574219 194.871094 C 318.453125 192.105469 316.09375 189.554688 313.503906 187.222656 C 310.910156 184.890625 308.125 182.816406 305.148438 181 C 302.171875 179.183594 299.054688 177.652344 295.796875 176.414062 Z M 240.15625 247.472656 " fill-opacity="1" fill-rule="nonzero"/><g clip-path="url(#1325be3601)"><path fill="#4193d2" d="M 235.023438 246.214844 L 146.894531 351.90625 C 160.46875 352.222656 174.027344 352.382812 187.578125 352.382812 C 223.722656 352.382812 260.144531 351.234375 296.082031 348.921875 C 297.1875 348.867188 308 348.230469 318.085938 347.136719 Z M 235.023438 246.214844 " fill-opacity="1" fill-rule="nonzero"/></g><g clip-path="url(#40ffb26c8f)"><path fill="#dd4247" d="M 190.632812 48.503906 C 174.683594 32.242188 154.46875 22.582031 133.167969 22.617188 L 132.589844 22.617188 C 89.332031 23.316406 50.917969 63.726562 49.839844 106.863281 C 49.667969 116.464844 51.296875 125.75 54.722656 134.714844 L 54.78125 134.863281 C 54.988281 136.246094 72.511719 175.578125 127.019531 234.0625 C 127.210938 234.324219 127.414062 234.570312 127.632812 234.808594 C 127.972656 235.1875 128.347656 235.527344 128.757812 235.828125 C 129.164062 236.132812 129.601562 236.386719 130.0625 236.601562 C 130.523438 236.8125 131.003906 236.976562 131.496094 237.089844 C 131.992188 237.203125 132.492188 237.265625 133 237.277344 C 133.507812 237.289062 134.011719 237.246094 134.511719 237.15625 C 135.011719 237.0625 135.496094 236.921875 135.96875 236.730469 C 136.4375 236.535156 136.882812 236.296875 137.304688 236.015625 C 137.726562 235.730469 138.113281 235.410156 138.46875 235.042969 C 159.554688 213.875 178.210938 190.746094 194.449219 165.652344 C 206.195312 147.28125 211.3125 135.503906 211.519531 134.992188 L 211.628906 134.714844 C 215.027344 125.832031 216.65625 116.632812 216.523438 107.121094 C 216.210938 85.605469 206.6875 64.910156 190.632812 48.503906 Z M 190.632812 48.503906 " fill-opacity="1" fill-rule="nonzero"/></g><path fill="#ffffff" d="M 247.21875 244.828125 L 325.511719 345.578125 C 323.421875 346.246094 321.292969 346.785156 319.136719 347.191406 C 318.804688 347.253906 318.445312 347.304688 318.117188 347.34375 C 312.9375 347.917969 307.566406 348.363281 303.414062 348.660156 L 234.980469 260.605469 Z M 247.21875 244.828125 " fill-opacity="1" fill-rule="nonzero"/><g clip-path="url(#c1486d14a7)"><path fill="#fca84c" d="M 247.21875 244.851562 L 299.253906 177.902344 L 299.398438 177.722656 C 298.410156 177.261719 297.40625 176.839844 296.382812 176.460938 L 296.191406 176.386719 C 295.035156 175.972656 289.417969 174.109375 278.382812 173.128906 L 277.308594 174.585938 L 139.527344 351.898438 C 147.570312 352.117188 155.613281 352.289062 163.652344 352.402344 L 234.980469 260.628906 Z M 247.21875 244.851562 " fill-opacity="1" fill-rule="nonzero"/></g><path fill="#ba2525" d="M 133.390625 140.257812 C 115.179688 140.257812 100.351562 125.445312 100.445312 107.347656 C 100.542969 89.253906 115.421875 74.191406 133.390625 74.167969 C 151.359375 74.148438 166.210938 89.269531 166.335938 107.382812 C 166.460938 125.5 151.609375 140.230469 133.390625 140.257812 Z M 133.390625 140.257812 " fill-opacity="1" fill-rule="nonzero"/></svg>