<svg xmlns="http://www.w3.org/2000/svg" xmlns:xlink="http://www.w3.org/1999/xlink" width="250" zoomAndPan="magnify" viewBox="0 0 187.5 187.499992" height="250" preserveAspectRatio="xMidYMid meet" version="1.0"><defs><g/><clipPath id="b8b3fe9ce7"><path d="M 97 104 L 186 104 L 186 180.890625 L 97 180.890625 Z M 97 104 " clip-rule="nonzero"/></clipPath><clipPath id="cb2d496b0b"><path d="M 1 110 L 127 110 L 127 180.890625 L 1 180.890625 Z M 1 110 " clip-rule="nonzero"/></clipPath><clipPath id="2a74b3f547"><path d="M 1 92 L 172 92 L 172 180.890625 L 1 180.890625 Z M 1 92 " clip-rule="nonzero"/></clipPath></defs><g fill="#000000" fill-opacity="1"><g transform="translate(91.275689, 95.747265)"><g><path d="M 1.765625 0.078125 C 1.347656 0.078125 1.019531 -0.03125 0.78125 -0.25 C 0.539062 -0.46875 0.421875 -0.78125 0.421875 -1.1875 C 0.421875 -1.445312 0.472656 -1.660156 0.578125 -1.828125 C 0.679688 -2.003906 0.84375 -2.148438 1.0625 -2.265625 C 1.289062 -2.378906 1.582031 -2.460938 1.9375 -2.515625 C 2.25 -2.566406 2.484375 -2.625 2.640625 -2.6875 C 2.804688 -2.757812 2.914062 -2.832031 2.96875 -2.90625 C 3.019531 -2.988281 3.046875 -3.09375 3.046875 -3.21875 C 3.046875 -3.414062 2.976562 -3.566406 2.84375 -3.671875 C 2.71875 -3.773438 2.503906 -3.828125 2.203125 -3.828125 C 1.929688 -3.828125 1.695312 -3.769531 1.5 -3.65625 C 1.300781 -3.550781 1.117188 -3.390625 0.953125 -3.171875 L 0.875 -3.171875 L 0.5625 -3.625 C 0.738281 -3.851562 0.96875 -4.035156 1.25 -4.171875 C 1.53125 -4.304688 1.847656 -4.375 2.203125 -4.375 C 2.710938 -4.375 3.085938 -4.257812 3.328125 -4.03125 C 3.566406 -3.8125 3.6875 -3.507812 3.6875 -3.125 L 3.6875 -0.84375 C 3.6875 -0.601562 3.785156 -0.484375 3.984375 -0.484375 C 4.054688 -0.484375 4.125 -0.492188 4.1875 -0.515625 L 4.234375 -0.5 L 4.3125 -0.0625 C 4.269531 -0.03125 4.207031 -0.0078125 4.125 0 C 4.050781 0.0195312 3.972656 0.03125 3.890625 0.03125 C 3.660156 0.03125 3.484375 -0.0195312 3.359375 -0.125 C 3.234375 -0.226562 3.15625 -0.378906 3.125 -0.578125 L 3.046875 -0.59375 C 2.921875 -0.363281 2.753906 -0.191406 2.546875 -0.078125 C 2.335938 0.0234375 2.078125 0.078125 1.765625 0.078125 Z M 1.90625 -0.421875 C 2.144531 -0.421875 2.351562 -0.472656 2.53125 -0.578125 C 2.707031 -0.691406 2.84375 -0.847656 2.9375 -1.046875 C 3.03125 -1.253906 3.078125 -1.488281 3.078125 -1.75 L 3.078125 -2.296875 L 3 -2.3125 C 2.90625 -2.238281 2.785156 -2.175781 2.640625 -2.125 C 2.503906 -2.082031 2.316406 -2.046875 2.078125 -2.015625 C 1.828125 -1.984375 1.628906 -1.929688 1.484375 -1.859375 C 1.335938 -1.785156 1.234375 -1.695312 1.171875 -1.59375 C 1.109375 -1.488281 1.078125 -1.351562 1.078125 -1.1875 C 1.078125 -0.9375 1.148438 -0.742188 1.296875 -0.609375 C 1.441406 -0.484375 1.644531 -0.421875 1.90625 -0.421875 Z M 1.90625 -0.421875 "/></g></g></g><path fill="#1976d2" d="M 169.980469 108.855469 L 164.617188 91.425781 C 164.320312 90.441406 163.945312 89.488281 163.492188 88.5625 C 163.039062 87.640625 162.519531 86.757812 161.925781 85.921875 C 161.332031 85.082031 160.675781 84.292969 159.957031 83.558594 C 159.238281 82.824219 158.464844 82.152344 157.636719 81.542969 C 156.808594 80.929688 155.941406 80.390625 155.027344 79.917969 C 154.113281 79.449219 153.167969 79.054688 152.191406 78.734375 C 151.210938 78.414062 150.214844 78.175781 149.199219 78.015625 C 148.183594 77.855469 147.164062 77.777344 146.136719 77.78125 L 40.222656 77.78125 C 39.191406 77.777344 38.171875 77.855469 37.15625 78.015625 C 36.140625 78.175781 35.144531 78.414062 34.164062 78.734375 C 33.1875 79.054688 32.242188 79.449219 31.328125 79.921875 C 30.414062 80.390625 29.542969 80.933594 28.71875 81.542969 C 27.890625 82.152344 27.117188 82.828125 26.398438 83.5625 C 25.679688 84.296875 25.023438 85.082031 24.429688 85.921875 C 23.835938 86.761719 23.3125 87.644531 22.863281 88.566406 C 22.410156 89.492188 22.035156 90.445312 21.734375 91.425781 L 18.898438 100.648438 C 18.6875 101.34375 18.59375 102.050781 18.621094 102.777344 C 18.648438 103.5 18.792969 104.203125 19.054688 104.878906 C 19.316406 105.550781 19.683594 106.167969 20.152344 106.71875 C 20.621094 107.269531 21.171875 107.730469 21.796875 108.097656 L 116.316406 163.683594 C 116.949219 164.054688 117.621094 164.3125 118.34375 164.453125 C 119.0625 164.59375 119.785156 164.613281 120.507812 164.507812 C 121.234375 164.402344 121.921875 164.179688 122.570312 163.839844 C 123.21875 163.5 123.796875 163.0625 124.296875 162.527344 L 168.53125 115.144531 C 168.917969 114.730469 169.242188 114.273438 169.507812 113.773438 C 169.777344 113.273438 169.972656 112.746094 170.101562 112.191406 C 170.226562 111.640625 170.28125 111.082031 170.261719 110.515625 C 170.242188 109.949219 170.148438 109.394531 169.980469 108.855469 Z M 169.980469 108.855469 " fill-opacity="1" fill-rule="nonzero"/><path fill="#689f38" d="M 53.621094 111.863281 L 28.332031 96.992188 C 27.914062 96.746094 27.472656 96.546875 27.007812 96.402344 C 26.542969 96.253906 26.070312 96.160156 25.585938 96.121094 C 25.097656 96.082031 24.617188 96.097656 24.132812 96.167969 C 23.652344 96.238281 23.183594 96.363281 22.730469 96.539062 C 22.277344 96.714844 21.847656 96.9375 21.445312 97.210938 C 21.042969 97.484375 20.675781 97.796875 20.34375 98.15625 C 20.011719 98.511719 19.726562 98.898438 19.484375 99.320312 C 19.238281 99.742188 19.046875 100.183594 18.902344 100.652344 L 6.128906 142.160156 C 5.929688 142.800781 5.835938 143.457031 5.84375 144.128906 C 5.851562 144.800781 5.960938 145.457031 6.171875 146.09375 C 6.382812 146.730469 6.6875 147.316406 7.085938 147.859375 C 7.480469 148.402344 7.949219 148.871094 8.492188 149.265625 C 9.035156 149.660156 9.625 149.964844 10.261719 150.175781 C 10.898438 150.382812 11.554688 150.492188 12.226562 150.5 C 12.898438 150.507812 13.554688 150.410156 14.195312 150.210938 C 14.835938 150.011719 15.433594 149.71875 15.980469 149.335938 L 54.046875 122.699219 C 54.265625 122.542969 54.476562 122.378906 54.675781 122.195312 C 54.875 122.015625 55.0625 121.824219 55.234375 121.621094 C 55.410156 121.417969 55.574219 121.203125 55.722656 120.980469 C 55.871094 120.753906 56.003906 120.523438 56.125 120.28125 C 56.242188 120.042969 56.347656 119.792969 56.433594 119.539062 C 56.523438 119.285156 56.597656 119.027344 56.652344 118.765625 C 56.707031 118.503906 56.75 118.238281 56.769531 117.96875 C 56.792969 117.703125 56.800781 117.433594 56.789062 117.164062 C 56.777344 116.898438 56.753906 116.628906 56.707031 116.367188 C 56.664062 116.101562 56.605469 115.839844 56.527344 115.582031 C 56.449219 115.324219 56.359375 115.070312 56.25 114.828125 C 56.140625 114.582031 56.019531 114.34375 55.882812 114.109375 C 55.742188 113.878906 55.589844 113.660156 55.425781 113.449219 C 55.261719 113.234375 55.082031 113.035156 54.890625 112.847656 C 54.699219 112.65625 54.5 112.480469 54.285156 112.316406 C 54.074219 112.152344 53.851562 112 53.621094 111.863281 Z M 53.621094 111.863281 " fill-opacity="1" fill-rule="nonzero"/><g clip-path="url(#b8b3fe9ce7)"><path fill="#689f38" d="M 184.449219 155.871094 L 169.976562 108.855469 C 169.894531 108.585938 169.796875 108.324219 169.679688 108.066406 C 169.5625 107.8125 169.429688 107.5625 169.28125 107.324219 C 169.128906 107.085938 168.964844 106.859375 168.785156 106.640625 C 168.605469 106.425781 168.414062 106.222656 168.207031 106.03125 C 168.003906 105.835938 167.785156 105.660156 167.554688 105.496094 C 167.328125 105.335938 167.085938 105.1875 166.839844 105.054688 C 166.589844 104.921875 166.335938 104.808594 166.070312 104.710938 C 165.808594 104.609375 165.539062 104.53125 165.265625 104.46875 C 164.988281 104.402344 164.714844 104.359375 164.433594 104.332031 C 164.152344 104.304688 163.871094 104.296875 163.589844 104.308594 C 163.308594 104.316406 163.03125 104.34375 162.753906 104.390625 C 162.476562 104.4375 162.203125 104.503906 161.933594 104.585938 C 161.664062 104.667969 161.402344 104.765625 161.144531 104.882812 C 160.890625 105 160.640625 105.132812 160.402344 105.28125 C 160.164062 105.433594 159.9375 105.597656 159.71875 105.773438 C 159.503906 105.953125 159.296875 106.144531 159.105469 106.351562 L 99.640625 170.050781 C 99.210938 170.507812 98.859375 171.019531 98.578125 171.582031 C 98.300781 172.144531 98.109375 172.734375 98 173.351562 C 97.894531 173.972656 97.878906 174.59375 97.953125 175.214844 C 98.027344 175.839844 98.191406 176.4375 98.441406 177.015625 C 98.691406 177.589844 99.019531 178.117188 99.425781 178.597656 C 99.828125 179.078125 100.292969 179.488281 100.816406 179.835938 C 101.34375 180.179688 101.90625 180.441406 102.507812 180.621094 C 103.109375 180.800781 103.722656 180.890625 104.351562 180.890625 L 165.96875 180.890625 C 166.722656 180.890625 167.472656 180.847656 168.222656 180.757812 C 168.972656 180.671875 169.710938 180.539062 170.445312 180.363281 C 171.179688 180.191406 171.898438 179.972656 172.609375 179.714844 C 173.316406 179.457031 174.007812 179.15625 174.679688 178.816406 C 175.351562 178.476562 176.003906 178.101562 176.632812 177.683594 C 177.261719 177.269531 177.863281 176.816406 178.441406 176.332031 C 179.015625 175.84375 179.5625 175.328125 180.078125 174.777344 C 180.59375 174.226562 181.074219 173.648438 181.523438 173.042969 C 181.972656 172.4375 182.382812 171.804688 182.757812 171.152344 C 183.132812 170.496094 183.464844 169.824219 183.761719 169.128906 C 184.054688 168.4375 184.308594 167.726562 184.523438 167.003906 C 184.734375 166.28125 184.90625 165.546875 185.03125 164.804688 C 185.15625 164.0625 185.242188 163.3125 185.28125 162.5625 C 185.320312 161.808594 185.3125 161.054688 185.265625 160.304688 C 185.214844 159.550781 185.125 158.804688 184.988281 158.0625 C 184.851562 157.320312 184.671875 156.589844 184.449219 155.871094 Z M 184.449219 155.871094 " fill-opacity="1" fill-rule="nonzero"/></g><g clip-path="url(#cb2d496b0b)"><path fill="#1976d2" d="M 122.851562 152.578125 L 53.617188 111.863281 C 53.085938 111.550781 52.519531 111.320312 51.921875 111.167969 C 51.320312 111.019531 50.710938 110.957031 50.09375 110.980469 C 49.476562 111.003906 48.878906 111.113281 48.292969 111.3125 C 47.707031 111.507812 47.160156 111.785156 46.65625 112.140625 L 8.589844 138.773438 C 7.382812 139.621094 6.558594 140.75 6.128906 142.160156 L 1.90625 155.867188 C 1.683594 156.589844 1.503906 157.320312 1.367188 158.0625 C 1.234375 158.800781 1.140625 159.550781 1.089844 160.300781 C 1.042969 161.054688 1.035156 161.804688 1.074219 162.558594 C 1.113281 163.3125 1.199219 164.058594 1.324219 164.804688 C 1.449219 165.546875 1.621094 166.277344 1.832031 167.003906 C 2.046875 167.726562 2.300781 168.433594 2.59375 169.128906 C 2.890625 169.820312 3.222656 170.496094 3.597656 171.148438 C 3.972656 171.804688 4.382812 172.433594 4.832031 173.042969 C 5.28125 173.648438 5.761719 174.226562 6.277344 174.777344 C 6.792969 175.328125 7.339844 175.84375 7.914062 176.332031 C 8.492188 176.816406 9.09375 177.269531 9.722656 177.683594 C 10.351562 178.097656 11.003906 178.476562 11.675781 178.816406 C 12.347656 179.15625 13.039062 179.457031 13.746094 179.714844 C 14.457031 179.972656 15.175781 180.191406 15.910156 180.363281 C 16.644531 180.539062 17.386719 180.671875 18.132812 180.757812 C 18.882812 180.847656 19.632812 180.890625 20.386719 180.890625 L 104.351562 180.890625 C 105.246094 180.890625 106.101562 180.710938 106.921875 180.355469 C 107.742188 180 108.453125 179.496094 109.0625 178.839844 L 124.296875 162.527344 C 124.625 162.171875 124.910156 161.789062 125.152344 161.371094 C 125.398438 160.953125 125.589844 160.515625 125.734375 160.054688 C 125.878906 159.59375 125.972656 159.125 126.007812 158.640625 C 126.046875 158.160156 126.03125 157.683594 125.964844 157.203125 C 125.894531 156.726562 125.773438 156.261719 125.597656 155.8125 C 125.425781 155.363281 125.203125 154.9375 124.933594 154.535156 C 124.664062 154.136719 124.355469 153.769531 124.003906 153.4375 C 123.652344 153.109375 123.265625 152.820312 122.851562 152.578125 Z M 122.851562 152.578125 " fill-opacity="1" fill-rule="nonzero"/></g><g clip-path="url(#2a74b3f547)"><path fill="#ffb300" d="M 171.046875 112.386719 L 107.101562 180.890625 L 89.503906 180.890625 L 109.359375 159.625 L 50.632812 125.082031 L 1.0625 159.753906 C 1.1875 158.429688 1.46875 157.140625 1.902344 155.886719 L 6.800781 140.03125 L 38.449219 117.863281 L 17.4375 105.492188 L 21.304688 92.859375 L 118.382812 149.957031 L 165.828125 99.175781 C 166.082031 98.863281 166.382812 98.605469 166.730469 98.402344 Z M 171.046875 112.386719 " fill-opacity="1" fill-rule="nonzero"/></g><path fill="#f44336" d="M 124.644531 26.804688 C 122.492188 24.6875 120.148438 22.8125 117.613281 21.171875 C 115.078125 19.53125 112.402344 18.164062 109.589844 17.066406 C 106.777344 15.972656 103.882812 15.167969 100.910156 14.660156 C 97.933594 14.148438 94.9375 13.945312 91.917969 14.042969 C 90.484375 14.097656 89.054688 14.21875 87.632812 14.40625 C 86.207031 14.59375 84.796875 14.847656 83.394531 15.167969 C 81.996094 15.488281 80.613281 15.875 79.25 16.328125 C 77.886719 16.78125 76.550781 17.292969 75.234375 17.871094 C 73.921875 18.453125 72.636719 19.089844 71.382812 19.789062 C 70.128906 20.492188 68.910156 21.25 67.730469 22.0625 C 66.546875 22.878906 65.40625 23.746094 64.304688 24.671875 C 63.207031 25.59375 62.152344 26.566406 61.144531 27.589844 C 60.136719 28.613281 59.179688 29.679688 58.273438 30.792969 C 57.367188 31.90625 56.515625 33.0625 55.714844 34.253906 C 54.917969 35.449219 54.179688 36.679688 53.5 37.941406 C 52.816406 39.207031 52.199219 40.5 51.640625 41.820312 C 51.078125 43.144531 50.585938 44.492188 50.152344 45.859375 C 49.722656 47.230469 49.355469 48.617188 49.054688 50.019531 C 48.757812 51.425781 48.523438 52.839844 48.355469 54.265625 C 48.191406 55.691406 48.09375 57.121094 48.0625 58.558594 C 48.019531 61.003906 48.179688 63.433594 48.542969 65.855469 C 48.902344 68.273438 49.460938 70.648438 50.214844 72.972656 C 50.972656 75.300781 51.910156 77.550781 53.039062 79.71875 C 54.164062 81.890625 55.464844 83.953125 56.933594 85.910156 C 57.742188 87.128906 78.0625 115.375 84.558594 124.371094 C 84.792969 124.699219 85.050781 125.015625 85.324219 125.3125 C 85.597656 125.609375 85.886719 125.890625 86.195312 126.15625 C 86.5 126.417969 86.820312 126.664062 87.15625 126.890625 C 87.492188 127.113281 87.839844 127.320312 88.199219 127.503906 C 88.5625 127.691406 88.929688 127.855469 89.308594 127.996094 C 89.6875 128.136719 90.074219 128.253906 90.46875 128.351562 C 90.859375 128.449219 91.257812 128.519531 91.660156 128.570312 C 92.0625 128.617188 92.464844 128.644531 92.867188 128.644531 C 93.273438 128.648438 93.675781 128.625 94.078125 128.578125 C 94.480469 128.535156 94.878906 128.464844 95.273438 128.371094 C 95.667969 128.28125 96.054688 128.164062 96.433594 128.027344 C 96.816406 127.886719 97.1875 127.726562 97.546875 127.546875 C 97.910156 127.363281 98.257812 127.160156 98.59375 126.9375 C 98.933594 126.714844 99.257812 126.472656 99.566406 126.210938 C 99.875 125.953125 100.167969 125.671875 100.445312 125.378906 C 100.71875 125.082031 100.976562 124.769531 101.21875 124.445312 C 101.464844 124.117188 128.273438 87.46875 129.320312 86.140625 C 132.21875 82.234375 134.433594 77.972656 135.96875 73.355469 C 137.503906 68.742188 138.28125 64 138.300781 59.136719 C 138.3125 56.121094 138.019531 53.136719 137.425781 50.179688 C 136.832031 47.222656 135.949219 44.355469 134.773438 41.578125 C 133.601562 38.796875 132.160156 36.164062 130.457031 33.679688 C 128.75 31.191406 126.8125 28.898438 124.644531 26.804688 Z M 124.644531 26.804688 " fill-opacity="1" fill-rule="nonzero"/><path fill="#eeeeee" d="M 112.515625 59.734375 C 112.515625 60.371094 112.484375 61 112.421875 61.632812 C 112.363281 62.261719 112.269531 62.886719 112.144531 63.507812 C 112.023438 64.128906 111.867188 64.742188 111.683594 65.347656 C 111.5 65.953125 111.289062 66.550781 111.042969 67.132812 C 110.800781 67.71875 110.53125 68.292969 110.234375 68.851562 C 109.933594 69.40625 109.609375 69.949219 109.257812 70.476562 C 108.90625 71.003906 108.527344 71.511719 108.128906 72 C 107.726562 72.492188 107.300781 72.957031 106.851562 73.40625 C 106.40625 73.855469 105.9375 74.277344 105.445312 74.679688 C 104.957031 75.082031 104.449219 75.460938 103.921875 75.8125 C 103.394531 76.164062 102.851562 76.488281 102.292969 76.785156 C 101.734375 77.085938 101.164062 77.355469 100.578125 77.597656 C 99.992188 77.839844 99.398438 78.054688 98.792969 78.238281 C 98.1875 78.421875 97.574219 78.574219 96.949219 78.699219 C 96.328125 78.820312 95.703125 78.914062 95.074219 78.976562 C 94.445312 79.039062 93.8125 79.070312 93.179688 79.070312 C 92.546875 79.070312 91.914062 79.039062 91.28125 78.976562 C 90.652344 78.914062 90.027344 78.820312 89.40625 78.699219 C 88.785156 78.574219 88.171875 78.421875 87.566406 78.238281 C 86.957031 78.054688 86.363281 77.839844 85.777344 77.597656 C 85.191406 77.355469 84.621094 77.085938 84.0625 76.785156 C 83.503906 76.488281 82.960938 76.164062 82.433594 75.8125 C 81.90625 75.460938 81.398438 75.082031 80.910156 74.679688 C 80.421875 74.277344 79.953125 73.855469 79.503906 73.40625 C 79.054688 72.957031 78.632812 72.492188 78.230469 72 C 77.828125 71.511719 77.449219 71.003906 77.097656 70.476562 C 76.746094 69.949219 76.421875 69.40625 76.125 68.851562 C 75.824219 68.292969 75.554688 67.71875 75.3125 67.132812 C 75.070312 66.550781 74.855469 65.953125 74.671875 65.347656 C 74.488281 64.742188 74.335938 64.128906 74.210938 63.507812 C 74.089844 62.886719 73.996094 62.261719 73.933594 61.632812 C 73.871094 61 73.839844 60.371094 73.839844 59.734375 C 73.839844 59.101562 73.871094 58.472656 73.933594 57.839844 C 73.996094 57.210938 74.089844 56.585938 74.210938 55.964844 C 74.335938 55.34375 74.488281 54.730469 74.671875 54.125 C 74.855469 53.519531 75.070312 52.921875 75.3125 52.335938 C 75.554688 51.753906 75.824219 51.179688 76.125 50.621094 C 76.421875 50.0625 76.746094 49.523438 77.097656 48.996094 C 77.449219 48.46875 77.828125 47.960938 78.230469 47.472656 C 78.632812 46.980469 79.054688 46.511719 79.503906 46.066406 C 79.953125 45.617188 80.421875 45.191406 80.910156 44.792969 C 81.398438 44.390625 81.90625 44.011719 82.433594 43.660156 C 82.960938 43.308594 83.503906 42.984375 84.0625 42.6875 C 84.621094 42.386719 85.191406 42.117188 85.777344 41.875 C 86.363281 41.632812 86.957031 41.417969 87.566406 41.234375 C 88.171875 41.050781 88.785156 40.898438 89.40625 40.773438 C 90.027344 40.652344 90.652344 40.558594 91.28125 40.496094 C 91.914062 40.433594 92.546875 40.402344 93.179688 40.402344 C 93.8125 40.402344 94.445312 40.433594 95.074219 40.496094 C 95.703125 40.558594 96.328125 40.652344 96.949219 40.773438 C 97.574219 40.898438 98.1875 41.050781 98.792969 41.234375 C 99.398438 41.417969 99.992188 41.632812 100.578125 41.875 C 101.164062 42.117188 101.734375 42.386719 102.292969 42.6875 C 102.851562 42.984375 103.394531 43.308594 103.921875 43.660156 C 104.449219 44.011719 104.957031 44.390625 105.445312 44.792969 C 105.9375 45.191406 106.40625 45.617188 106.851562 46.066406 C 107.300781 46.511719 107.726562 46.980469 108.128906 47.472656 C 108.527344 47.960938 108.90625 48.46875 109.257812 48.996094 C 109.609375 49.523438 109.933594 50.0625 110.234375 50.621094 C 110.53125 51.179688 110.800781 51.753906 111.042969 52.335938 C 111.289062 52.921875 111.5 53.519531 111.683594 54.125 C 111.867188 54.730469 112.023438 55.34375 112.144531 55.964844 C 112.269531 56.585938 112.363281 57.210938 112.421875 57.839844 C 112.484375 58.472656 112.515625 59.101562 112.515625 59.734375 Z M 112.515625 59.734375 " fill-opacity="1" fill-rule="nonzero"/></svg>