<svg xmlns="http://www.w3.org/2000/svg" xmlns:xlink="http://www.w3.org/1999/xlink" width="500" zoomAndPan="magnify" viewBox="0 0 375 374.999991" height="500" preserveAspectRatio="xMidYMid meet" version="1.0"><defs><clipPath id="f3f55cc5b9"><path d="M 53.671875 245 L 321.421875 245 L 321.421875 321.421875 L 53.671875 321.421875 Z M 53.671875 245 " clip-rule="nonzero"/></clipPath><clipPath id="a0e20c82df"><path d="M 101 53.671875 L 273 53.671875 L 273 298 L 101 298 Z M 101 53.671875 " clip-rule="nonzero"/></clipPath></defs><g clip-path="url(#f3f55cc5b9)"><path fill="#ffffff" d="M 241.554688 245.523438 C 239.101562 245.21875 236.886719 246.980469 236.601562 249.429688 C 236.3125 251.878906 238.058594 254.097656 240.507812 254.382812 C 287.421875 259.910156 312.40625 274.789062 312.40625 283.410156 C 312.40625 295.515625 264.886719 312.40625 187.5 312.40625 C 110.113281 312.40625 62.59375 295.515625 62.59375 283.410156 C 62.59375 274.789062 87.578125 259.910156 134.492188 254.382812 C 136.933594 254.097656 138.6875 251.878906 138.398438 249.429688 C 138.109375 246.980469 135.898438 245.214844 133.445312 245.523438 C 86.476562 251.054688 53.671875 266.632812 53.671875 283.410156 C 53.671875 302.253906 99.640625 321.328125 187.5 321.328125 C 275.359375 321.328125 321.328125 302.253906 321.328125 283.410156 C 321.328125 266.632812 288.523438 251.054688 241.554688 245.523438 " fill-opacity="1" fill-rule="evenodd"/></g><g clip-path="url(#a0e20c82df)"><path fill="#ffffff" d="M 186.710938 297.9375 L 255.144531 199.097656 C 280.816406 164.878906 277.101562 108.625 247.199219 78.730469 C 231.042969 62.570312 209.558594 53.671875 186.710938 53.671875 C 163.863281 53.671875 142.378906 62.570312 126.21875 78.730469 C 96.324219 108.625 92.605469 164.875 118.175781 198.960938 Z M 187.5 107.203125 C 204.71875 107.203125 218.726562 121.214844 218.726562 138.429688 C 218.726562 155.644531 204.71875 169.65625 187.5 169.65625 C 170.28125 169.65625 156.273438 155.644531 156.273438 138.429688 C 156.273438 121.214844 170.28125 107.203125 187.5 107.203125 Z M 187.5 107.203125 " fill-opacity="1" fill-rule="evenodd"/></g></svg>