<svg xmlns="http://www.w3.org/2000/svg" xmlns:xlink="http://www.w3.org/1999/xlink" width="300" zoomAndPan="magnify" viewBox="0 0 224.87999 225" height="300" preserveAspectRatio="xMidYMid meet" version="1.0"><defs><clipPath id="fee045071d"><path d="M 15.1875 21 L 209.332031 21 L 209.332031 223.359375 L 15.1875 223.359375 Z M 15.1875 21 " clip-rule="nonzero"/></clipPath><clipPath id="aeda312f7d"><path d="M 81.5625 79.835938 L 89.832031 79.835938 L 89.832031 88.109375 L 81.5625 88.109375 Z M 81.5625 79.835938 " clip-rule="nonzero"/></clipPath><clipPath id="daf9cfbd8f"><path d="M 85.695312 79.835938 C 83.414062 79.835938 81.5625 81.691406 81.5625 83.972656 C 81.5625 86.257812 83.414062 88.109375 85.695312 88.109375 C 87.980469 88.109375 89.832031 86.257812 89.832031 83.972656 C 89.832031 81.691406 87.980469 79.835938 85.695312 79.835938 Z M 85.695312 79.835938 " clip-rule="nonzero"/></clipPath></defs><g clip-path="url(#fee045071d)"><path fill="#ffffff" d="M 143.460938 155.265625 L 165.253906 125.394531 C 166.433594 123.78125 167.539062 122.113281 168.5625 120.394531 C 169.589844 118.679688 170.535156 116.917969 171.398438 115.113281 C 172.265625 113.3125 173.042969 111.472656 173.742188 109.597656 C 174.4375 107.71875 175.042969 105.816406 175.566406 103.886719 C 176.085938 101.953125 176.519531 100.003906 176.859375 98.03125 C 177.203125 96.0625 177.453125 94.078125 177.613281 92.085938 C 177.773438 90.089844 177.839844 88.09375 177.816406 86.09375 C 177.796875 84.09375 177.679688 82.097656 177.472656 80.109375 C 177.265625 78.117188 176.96875 76.140625 176.582031 74.179688 C 176.195312 72.21875 175.71875 70.277344 175.152344 68.359375 C 174.585938 66.4375 173.933594 64.550781 173.195312 62.691406 C 172.457031 60.832031 171.632812 59.011719 170.726562 57.226562 C 169.820312 55.445312 168.835938 53.707031 167.769531 52.015625 C 166.703125 50.320312 165.5625 48.679688 164.34375 47.09375 C 163.128906 45.503906 161.84375 43.976562 160.484375 42.503906 C 159.128906 41.035156 157.707031 39.632812 156.222656 38.292969 C 154.734375 36.953125 153.191406 35.683594 151.589844 34.484375 C 149.988281 33.289062 148.335938 32.164062 146.628906 31.121094 C 144.925781 30.074219 143.175781 29.109375 141.378906 28.222656 C 139.585938 27.335938 137.757812 26.535156 135.890625 25.816406 C 134.023438 25.101562 132.125 24.46875 130.199219 23.925781 C 128.273438 23.382812 126.328125 22.929688 124.363281 22.5625 C 122.394531 22.199219 120.417969 21.925781 118.425781 21.742188 C 116.433594 21.558594 114.4375 21.464844 112.433594 21.464844 C 110.433594 21.464844 108.4375 21.558594 106.445312 21.742188 C 104.453125 21.925781 102.476562 22.199219 100.507812 22.5625 C 98.542969 22.929688 96.597656 23.382812 94.671875 23.925781 C 92.746094 24.46875 90.847656 25.101562 88.980469 25.816406 C 87.113281 26.535156 85.285156 27.335938 83.492188 28.222656 C 81.695312 29.109375 79.945312 30.074219 78.242188 31.121094 C 76.535156 32.164062 74.882812 33.289062 73.28125 34.484375 C 71.679688 35.683594 70.136719 36.953125 68.648438 38.292969 C 67.164062 39.632812 65.742188 41.035156 64.386719 42.503906 C 63.027344 43.976562 61.742188 45.503906 60.527344 47.09375 C 59.308594 48.679688 58.167969 50.320312 57.101562 52.015625 C 56.035156 53.707031 55.050781 55.445312 54.144531 57.226562 C 53.238281 59.011719 52.414062 60.832031 51.675781 62.691406 C 50.9375 64.550781 50.285156 66.4375 49.71875 68.359375 C 49.152344 70.277344 48.675781 72.21875 48.289062 74.179688 C 47.902344 76.140625 47.601562 78.117188 47.398438 80.109375 C 47.191406 82.097656 47.074219 84.09375 47.050781 86.09375 C 47.03125 88.09375 47.097656 90.089844 47.257812 92.085938 C 47.417969 94.078125 47.667969 96.0625 48.011719 98.03125 C 48.351562 100.003906 48.785156 101.953125 49.304688 103.886719 C 49.828125 105.816406 50.433594 107.71875 51.128906 109.597656 C 51.828125 111.472656 52.605469 113.3125 53.472656 115.113281 C 54.335938 116.917969 55.28125 118.679688 56.308594 120.394531 C 57.332031 122.113281 58.4375 123.78125 59.617188 125.394531 L 81.417969 155.273438 C 45.199219 159.300781 15.1875 170.515625 15.1875 188.4375 C 15.1875 211.324219 64.109375 223.300781 112.433594 223.300781 C 160.761719 223.300781 209.683594 211.324219 209.683594 188.4375 C 209.683594 170.515625 179.679688 159.292969 143.460938 155.265625 Z M 68.507812 118.90625 C 67.527344 117.5625 66.609375 116.175781 65.757812 114.75 C 64.902344 113.320312 64.117188 111.855469 63.398438 110.355469 C 62.679688 108.855469 62.03125 107.324219 61.453125 105.765625 C 60.875 104.207031 60.367188 102.625 59.933594 101.015625 C 59.5 99.410156 59.140625 97.789062 58.855469 96.148438 C 58.574219 94.507812 58.363281 92.859375 58.230469 91.203125 C 58.097656 89.542969 58.039062 87.882812 58.058594 86.21875 C 58.078125 84.554688 58.175781 82.898438 58.347656 81.242188 C 58.519531 79.585938 58.765625 77.945312 59.085938 76.3125 C 59.410156 74.679688 59.804688 73.066406 60.277344 71.46875 C 60.746094 69.875 61.289062 68.304688 61.90625 66.757812 C 62.519531 65.210938 63.203125 63.699219 63.957031 62.214844 C 64.710938 60.730469 65.53125 59.285156 66.417969 57.878906 C 67.304688 56.46875 68.253906 55.105469 69.265625 53.785156 C 70.277344 52.464844 71.347656 51.191406 72.472656 49.96875 C 73.601562 48.75 74.785156 47.578125 76.019531 46.464844 C 77.257812 45.351562 78.539062 44.296875 79.871094 43.300781 C 81.203125 42.304688 82.578125 41.371094 83.996094 40.5 C 85.414062 39.632812 86.871094 38.828125 88.363281 38.089844 C 89.855469 37.355469 91.375 36.6875 92.929688 36.089844 C 94.484375 35.496094 96.058594 34.96875 97.660156 34.519531 C 99.261719 34.066406 100.878906 33.6875 102.515625 33.386719 C 104.152344 33.082031 105.796875 32.855469 107.453125 32.703125 C 109.109375 32.550781 110.769531 32.472656 112.433594 32.472656 C 114.097656 32.472656 115.757812 32.550781 117.414062 32.703125 C 119.070312 32.855469 120.71875 33.082031 122.355469 33.386719 C 123.988281 33.6875 125.609375 34.066406 127.207031 34.519531 C 128.808594 34.96875 130.386719 35.496094 131.941406 36.089844 C 133.492188 36.6875 135.015625 37.355469 136.507812 38.089844 C 138 38.828125 139.453125 39.632812 140.871094 40.5 C 142.289062 41.371094 143.664062 42.304688 144.996094 43.300781 C 146.328125 44.296875 147.613281 45.351562 148.847656 46.464844 C 150.085938 47.578125 151.265625 48.75 152.394531 49.96875 C 153.523438 51.191406 154.59375 52.464844 155.605469 53.785156 C 156.617188 55.105469 157.566406 56.46875 158.453125 57.878906 C 159.339844 59.285156 160.15625 60.730469 160.910156 62.214844 C 161.664062 63.699219 162.351562 65.210938 162.964844 66.757812 C 163.578125 68.304688 164.121094 69.875 164.59375 71.46875 C 165.0625 73.066406 165.460938 74.679688 165.78125 76.3125 C 166.105469 77.945312 166.351562 79.585938 166.523438 81.242188 C 166.695312 82.898438 166.789062 84.554688 166.808594 86.21875 C 166.828125 87.882812 166.773438 89.542969 166.636719 91.203125 C 166.503906 92.859375 166.296875 94.507812 166.011719 96.148438 C 165.726562 97.789062 165.367188 99.410156 164.933594 101.015625 C 164.503906 102.625 163.996094 104.207031 163.417969 105.765625 C 162.839844 107.324219 162.191406 108.855469 161.472656 110.355469 C 160.75 111.855469 159.964844 113.320312 159.113281 114.746094 C 158.257812 116.175781 157.339844 117.5625 156.359375 118.90625 L 112.433594 179.101562 Z M 112.433594 212.292969 C 59.789062 212.292969 26.195312 198.164062 26.195312 188.4375 C 26.195312 180.253906 50.046875 168.984375 88.960938 165.609375 L 107.988281 191.683594 C 108.242188 192.035156 108.535156 192.347656 108.867188 192.628906 C 109.195312 192.910156 109.554688 193.148438 109.941406 193.34375 C 110.328125 193.542969 110.730469 193.691406 111.152344 193.792969 C 111.574219 193.890625 112 193.941406 112.433594 193.941406 C 112.867188 193.941406 113.296875 193.890625 113.71875 193.792969 C 114.136719 193.691406 114.542969 193.542969 114.929688 193.34375 C 115.316406 193.148438 115.671875 192.910156 116.003906 192.628906 C 116.332031 192.347656 116.625 192.035156 116.882812 191.683594 L 135.910156 165.609375 C 174.832031 168.980469 198.675781 180.253906 198.675781 188.4375 C 198.675781 198.164062 165.078125 212.292969 112.433594 212.292969 Z M 112.433594 212.292969 " fill-opacity="1" fill-rule="nonzero"/></g><path fill="#ffffff" d="M 144.519531 86.851562 C 144.519531 85.800781 144.46875 84.753906 144.367188 83.707031 C 144.261719 82.664062 144.109375 81.625 143.902344 80.59375 C 143.699219 79.5625 143.445312 78.542969 143.136719 77.539062 C 142.832031 76.535156 142.480469 75.546875 142.078125 74.574219 C 141.675781 73.605469 141.226562 72.65625 140.730469 71.726562 C 140.238281 70.800781 139.695312 69.902344 139.113281 69.027344 C 138.53125 68.152344 137.902344 67.3125 137.238281 66.5 C 136.570312 65.6875 135.867188 64.910156 135.125 64.164062 C 134.378906 63.421875 133.601562 62.71875 132.789062 62.050781 C 131.976562 61.382812 131.136719 60.757812 130.261719 60.175781 C 129.386719 59.589844 128.488281 59.050781 127.5625 58.558594 C 126.632812 58.0625 125.683594 57.613281 124.714844 57.210938 C 123.742188 56.808594 122.753906 56.453125 121.75 56.148438 C 120.746094 55.84375 119.726562 55.589844 118.695312 55.382812 C 117.664062 55.179688 116.628906 55.027344 115.582031 54.921875 C 114.535156 54.820312 113.488281 54.769531 112.4375 54.769531 C 111.386719 54.769531 110.335938 54.820312 109.292969 54.921875 C 108.246094 55.023438 107.207031 55.179688 106.175781 55.382812 C 105.148438 55.589844 104.128906 55.84375 103.121094 56.148438 C 102.117188 56.453125 101.128906 56.808594 100.160156 57.210938 C 99.1875 57.613281 98.238281 58.0625 97.3125 58.554688 C 96.386719 59.050781 95.484375 59.589844 94.613281 60.175781 C 93.738281 60.757812 92.894531 61.382812 92.082031 62.050781 C 91.269531 62.714844 90.492188 63.421875 89.75 64.164062 C 89.007812 64.90625 88.300781 65.683594 87.636719 66.496094 C 86.96875 67.308594 86.34375 68.152344 85.757812 69.027344 C 85.175781 69.898438 84.636719 70.800781 84.140625 71.726562 C 83.644531 72.652344 83.195312 73.601562 82.792969 74.574219 C 82.390625 75.542969 82.039062 76.53125 81.734375 77.539062 C 81.429688 78.542969 81.171875 79.5625 80.96875 80.59375 C 80.761719 81.621094 80.609375 82.660156 80.507812 83.707031 C 80.402344 84.753906 80.351562 85.800781 80.351562 86.851562 C 80.351562 87.902344 80.402344 88.949219 80.503906 89.996094 C 80.609375 91.042969 80.761719 92.078125 80.96875 93.109375 C 81.171875 94.140625 81.425781 95.160156 81.734375 96.164062 C 82.039062 97.171875 82.390625 98.160156 82.792969 99.128906 C 83.195312 100.101562 83.644531 101.050781 84.140625 101.976562 C 84.636719 102.902344 85.175781 103.800781 85.757812 104.675781 C 86.34375 105.550781 86.96875 106.394531 87.632812 107.207031 C 88.300781 108.019531 89.003906 108.796875 89.746094 109.539062 C 90.492188 110.28125 91.269531 110.984375 92.082031 111.652344 C 92.894531 112.320312 93.734375 112.945312 94.609375 113.527344 C 95.484375 114.113281 96.382812 114.652344 97.308594 115.148438 C 98.238281 115.644531 99.1875 116.089844 100.15625 116.492188 C 101.128906 116.894531 102.117188 117.25 103.121094 117.554688 C 104.125 117.859375 105.144531 118.113281 106.175781 118.320312 C 107.207031 118.523438 108.242188 118.679688 109.289062 118.78125 C 110.335938 118.886719 111.382812 118.9375 112.433594 118.9375 C 113.484375 118.933594 114.53125 118.882812 115.578125 118.777344 C 116.625 118.675781 117.660156 118.519531 118.691406 118.3125 C 119.722656 118.109375 120.738281 117.851562 121.746094 117.546875 C 122.75 117.242188 123.738281 116.886719 124.707031 116.484375 C 125.675781 116.082031 126.625 115.632812 127.550781 115.136719 C 128.476562 114.640625 129.378906 114.101562 130.25 113.519531 C 131.125 112.933594 131.96875 112.308594 132.777344 111.644531 C 133.589844 110.976562 134.367188 110.273438 135.113281 109.527344 C 135.855469 108.785156 136.558594 108.007812 137.226562 107.195312 C 137.890625 106.386719 138.515625 105.542969 139.101562 104.667969 C 139.683594 103.796875 140.226562 102.894531 140.71875 101.96875 C 141.214844 101.042969 141.664062 100.09375 142.066406 99.125 C 142.46875 98.15625 142.824219 97.167969 143.128906 96.164062 C 143.4375 95.15625 143.691406 94.140625 143.898438 93.109375 C 144.101562 92.078125 144.257812 91.042969 144.363281 89.996094 C 144.464844 88.949219 144.519531 87.902344 144.519531 86.851562 Z M 91.359375 86.851562 C 91.359375 86.164062 91.394531 85.472656 91.460938 84.785156 C 91.53125 84.101562 91.628906 83.417969 91.765625 82.742188 C 91.898438 82.0625 92.066406 81.394531 92.269531 80.734375 C 92.46875 80.074219 92.699219 79.425781 92.964844 78.789062 C 93.230469 78.148438 93.523438 77.527344 93.847656 76.917969 C 94.175781 76.308594 94.527344 75.71875 94.910156 75.144531 C 95.296875 74.570312 95.707031 74.015625 96.144531 73.484375 C 96.582031 72.949219 97.042969 72.4375 97.53125 71.949219 C 98.019531 71.460938 98.53125 71 99.066406 70.5625 C 99.597656 70.125 100.152344 69.710938 100.726562 69.328125 C 101.300781 68.945312 101.890625 68.589844 102.5 68.265625 C 103.109375 67.941406 103.734375 67.644531 104.371094 67.382812 C 105.007812 67.117188 105.65625 66.886719 106.316406 66.683594 C 106.976562 66.484375 107.648438 66.316406 108.324219 66.183594 C 109 66.046875 109.683594 65.945312 110.371094 65.878906 C 111.054688 65.8125 111.746094 65.777344 112.433594 65.777344 C 113.125 65.777344 113.8125 65.8125 114.5 65.878906 C 115.1875 65.945312 115.871094 66.046875 116.546875 66.183594 C 117.222656 66.316406 117.890625 66.484375 118.554688 66.683594 C 119.214844 66.886719 119.863281 67.117188 120.5 67.382812 C 121.136719 67.644531 121.761719 67.941406 122.371094 68.265625 C 122.980469 68.589844 123.570312 68.945312 124.144531 69.328125 C 124.71875 69.710938 125.269531 70.121094 125.804688 70.5625 C 126.339844 71 126.847656 71.460938 127.335938 71.949219 C 127.824219 72.4375 128.289062 72.949219 128.726562 73.480469 C 129.164062 74.015625 129.574219 74.570312 129.957031 75.144531 C 130.34375 75.71875 130.695312 76.308594 131.023438 76.917969 C 131.347656 77.527344 131.640625 78.148438 131.90625 78.785156 C 132.171875 79.425781 132.402344 80.074219 132.601562 80.734375 C 132.804688 81.394531 132.96875 82.0625 133.105469 82.742188 C 133.238281 83.417969 133.339844 84.097656 133.410156 84.785156 C 133.476562 85.472656 133.511719 86.160156 133.511719 86.851562 C 133.511719 87.542969 133.476562 88.230469 133.410156 88.917969 C 133.339844 89.605469 133.238281 90.285156 133.105469 90.964844 C 132.96875 91.640625 132.804688 92.308594 132.601562 92.96875 C 132.402344 93.628906 132.171875 94.28125 131.90625 94.917969 C 131.640625 95.554688 131.347656 96.179688 131.023438 96.785156 C 130.695312 97.394531 130.339844 97.988281 129.957031 98.5625 C 129.574219 99.136719 129.164062 99.6875 128.726562 100.222656 C 128.289062 100.753906 127.824219 101.265625 127.335938 101.753906 C 126.847656 102.242188 126.339844 102.707031 125.804688 103.144531 C 125.269531 103.582031 124.71875 103.992188 124.144531 104.375 C 123.570312 104.757812 122.976562 105.113281 122.371094 105.4375 C 121.761719 105.765625 121.136719 106.058594 120.5 106.324219 C 119.863281 106.585938 119.214844 106.820312 118.550781 107.019531 C 117.890625 107.21875 117.222656 107.386719 116.546875 107.523438 C 115.871094 107.65625 115.1875 107.757812 114.5 107.824219 C 113.8125 107.894531 113.125 107.925781 112.433594 107.925781 C 111.746094 107.925781 111.054688 107.890625 110.371094 107.824219 C 109.683594 107.753906 109 107.652344 108.324219 107.519531 C 107.648438 107.382812 106.980469 107.214844 106.320312 107.015625 C 105.660156 106.8125 105.011719 106.582031 104.375 106.316406 C 103.734375 106.050781 103.113281 105.757812 102.503906 105.429688 C 101.898438 105.105469 101.304688 104.75 100.730469 104.367188 C 100.160156 103.984375 99.605469 103.574219 99.070312 103.136719 C 98.539062 102.699219 98.027344 102.234375 97.539062 101.746094 C 97.050781 101.257812 96.589844 100.75 96.152344 100.214844 C 95.714844 99.683594 95.304688 99.128906 94.917969 98.554688 C 94.535156 97.980469 94.179688 97.390625 93.855469 96.78125 C 93.53125 96.175781 93.234375 95.550781 92.972656 94.914062 C 92.707031 94.277344 92.472656 93.628906 92.273438 92.96875 C 92.074219 92.308594 91.90625 91.640625 91.769531 90.960938 C 91.632812 90.285156 91.53125 89.605469 91.464844 88.917969 C 91.394531 88.230469 91.359375 87.542969 91.359375 86.851562 Z M 91.359375 86.851562 " fill-opacity="1" fill-rule="nonzero"/><g clip-path="url(#aeda312f7d)"><g clip-path="url(#daf9cfbd8f)"><path fill="#ffffff" d="M 81.5625 79.835938 L 89.832031 79.835938 L 89.832031 88.109375 L 81.5625 88.109375 Z M 81.5625 79.835938 " fill-opacity="1" fill-rule="nonzero"/></g></g></svg>