<svg xmlns="http://www.w3.org/2000/svg" xmlns:xlink="http://www.w3.org/1999/xlink" width="500" zoomAndPan="magnify" viewBox="0 0 375 374.999991" height="500" preserveAspectRatio="xMidYMid meet" version="1.0"><defs><clipPath id="357444dbe2"><path d="M 59 142 L 316 142 L 316 325.335938 L 59 325.335938 Z M 59 142 " clip-rule="nonzero"/></clipPath><clipPath id="e538e04324"><path d="M 11 57.585938 L 364 57.585938 L 364 191 L 11 191 Z M 11 57.585938 " clip-rule="nonzero"/></clipPath></defs><path fill="#ffffff" d="M 187.507812 216.773438 C 186.328125 216.773438 185.152344 216.828125 183.980469 216.941406 C 182.808594 217.058594 181.644531 217.230469 180.488281 217.457031 C 179.332031 217.6875 178.191406 217.972656 177.0625 218.3125 C 175.9375 218.65625 174.828125 219.050781 173.738281 219.5 C 172.652344 219.953125 171.585938 220.453125 170.546875 221.007812 C 169.507812 221.5625 168.5 222.167969 167.519531 222.824219 C 166.539062 223.476562 165.59375 224.179688 164.683594 224.925781 C 163.773438 225.671875 162.902344 226.464844 162.066406 227.296875 C 161.234375 228.128906 160.445312 229 159.695312 229.910156 C 158.949219 230.824219 158.25 231.769531 157.59375 232.746094 C 156.941406 233.726562 156.335938 234.738281 155.78125 235.777344 C 155.226562 236.816406 154.722656 237.878906 154.273438 238.96875 C 153.824219 240.054688 153.425781 241.164062 153.085938 242.292969 C 152.742188 243.421875 152.457031 244.5625 152.230469 245.71875 C 152 246.871094 151.828125 248.035156 151.714844 249.210938 C 151.601562 250.382812 151.542969 251.558594 151.542969 252.734375 C 151.542969 272.617188 167.621094 288.859375 187.507812 288.859375 C 207.394531 288.859375 223.46875 272.617188 223.46875 252.734375 C 223.46875 251.558594 223.414062 250.382812 223.300781 249.210938 C 223.183594 248.039062 223.011719 246.875 222.785156 245.71875 C 222.554688 244.5625 222.269531 243.421875 221.929688 242.292969 C 221.585938 241.164062 221.191406 240.058594 220.742188 238.96875 C 220.289062 237.878906 219.789062 236.816406 219.230469 235.777344 C 218.675781 234.738281 218.074219 233.726562 217.417969 232.75 C 216.765625 231.769531 216.0625 230.824219 215.316406 229.914062 C 214.570312 229.003906 213.777344 228.128906 212.945312 227.296875 C 212.113281 226.464844 211.242188 225.675781 210.328125 224.925781 C 209.417969 224.179688 208.472656 223.480469 207.496094 222.824219 C 206.515625 222.171875 205.503906 221.566406 204.464844 221.011719 C 203.425781 220.457031 202.363281 219.953125 201.273438 219.503906 C 200.1875 219.050781 199.078125 218.65625 197.949219 218.316406 C 196.824219 217.972656 195.679688 217.6875 194.523438 217.460938 C 193.371094 217.230469 192.207031 217.058594 191.03125 216.945312 C 189.859375 216.828125 188.683594 216.773438 187.507812 216.773438 Z M 187.507812 216.773438 " fill-opacity="1" fill-rule="evenodd"/><g clip-path="url(#357444dbe2)"><path fill="#ffffff" d="M 227.4375 153.671875 C 219.484375 167.492188 219.996094 167.324219 209.632812 166.980469 C 202.546875 166.804688 194.929688 166.628906 187.507812 166.628906 C 179.902344 166.628906 172.464844 166.804688 165.378906 166.980469 C 154.835938 167.324219 155.351562 167.5 147.398438 153.671875 C 138.242188 137.941406 109.375 136.902344 109.375 159.71875 C 109.375 200.34375 59.761719 208.121094 59.761719 296.800781 C 59.761719 316.847656 69.265625 325.144531 88.976562 325.144531 L 285.859375 325.144531 C 305.742188 325.144531 315.246094 316.84375 315.246094 296.800781 C 315.246094 208.121094 265.46875 200.34375 265.46875 159.71875 C 265.464844 136.910156 236.597656 137.945312 227.4375 153.671875 Z M 187.507812 309.421875 C 156.214844 309.421875 130.976562 284.007812 130.976562 252.722656 C 130.976562 221.605469 156.214844 196.191406 187.507812 196.191406 C 218.796875 196.191406 244.03125 221.605469 244.03125 252.722656 C 244.03125 284.015625 218.792969 309.429688 187.507812 309.429688 Z M 187.507812 309.421875 " fill-opacity="1" fill-rule="evenodd"/></g><g clip-path="url(#e538e04324)"><path fill="#ffffff" d="M 294.4375 71.484375 C 264.941406 62.273438 226.222656 57.664062 187.503906 57.664062 C 148.789062 57.664062 110.070312 62.273438 80.386719 71.484375 C 16.964844 91.394531 0 124.765625 17.886719 182.472656 C 23.601562 200.722656 96.609375 184.320312 92.554688 154.082031 C 89.050781 129.746094 84.257812 120.34375 114.863281 112.230469 C 134.589844 107.066406 160.957031 104.484375 187.503906 104.484375 C 213.871094 104.484375 240.417969 107.066406 260.148438 112.230469 C 290.566406 120.34375 285.773438 129.746094 282.457031 154.082031 C 278.214844 184.320312 351.410156 200.726562 356.941406 182.472656 C 375.007812 124.765625 358.046875 91.394531 294.4375 71.484375 Z M 294.4375 71.484375 " fill-opacity="1" fill-rule="evenodd"/></g></svg>