<svg xmlns="http://www.w3.org/2000/svg" xmlns:xlink="http://www.w3.org/1999/xlink" width="300" zoomAndPan="magnify" viewBox="0 0 224.87999 225" height="300" preserveAspectRatio="xMidYMid meet" version="1.0"><defs><clipPath id="e7db110818"><path d="M 3.15625 51.101562 L 222 51.101562 L 222 130 L 3.15625 130 Z M 3.15625 51.101562 " clip-rule="nonzero"/></clipPath><clipPath id="e1f477b91b"><path d="M 20 101 L 205 101 L 205 223.507812 L 20 223.507812 Z M 20 101 " clip-rule="nonzero"/></clipPath><clipPath id="6a54ab98ab"><path d="M 78.707031 78.769531 L 88.179688 78.769531 L 88.179688 88.242188 L 78.707031 88.242188 Z M 78.707031 78.769531 " clip-rule="nonzero"/></clipPath><clipPath id="55c7e50d4b"><path d="M 83.445312 78.769531 C 80.828125 78.769531 78.707031 80.886719 78.707031 83.503906 C 78.707031 86.121094 80.828125 88.242188 83.445312 88.242188 C 86.058594 88.242188 88.179688 86.121094 88.179688 83.503906 C 88.179688 80.886719 86.058594 78.769531 83.445312 78.769531 Z M 83.445312 78.769531 " clip-rule="nonzero"/></clipPath></defs><g clip-path="url(#e7db110818)"><path fill="#ffffff" d="M 92.378906 61.785156 C 92.421875 61.785156 92.460938 61.785156 92.507812 61.785156 L 132.464844 61.785156 C 132.507812 61.785156 132.535156 61.785156 132.578125 61.785156 C 152.078125 61.335938 171.25 63.019531 185.449219 69.460938 C 199.628906 75.902344 209.125 86.34375 211.335938 106.09375 L 211.335938 114.457031 C 211.335938 115.378906 211.226562 115.507812 210.652344 116.054688 C 210.097656 116.578125 208.851562 117.289062 207.050781 117.800781 C 203.449219 118.816406 197.996094 118.980469 193.566406 118.628906 C 193.421875 118.628906 193.292969 118.628906 193.15625 118.628906 C 182.660156 118.628906 179.074219 117.019531 177.285156 115.300781 C 175.484375 113.589844 174.378906 109.9375 171.554688 104.277344 L 166.019531 93.257812 C 163.277344 87.769531 159.414062 83.902344 155.054688 81.679688 C 150.695312 79.464844 146.078125 78.867188 141.699219 78.867188 L 83.253906 78.867188 C 78.894531 78.867188 74.265625 79.464844 69.90625 81.679688 C 65.558594 83.902344 61.695312 87.769531 58.953125 93.257812 L 53.417969 104.277344 C 50.574219 109.933594 49.472656 113.589844 47.6875 115.296875 C 45.886719 117.011719 42.3125 118.621094 31.816406 118.621094 C 31.675781 118.621094 31.53125 118.621094 31.386719 118.621094 C 26.957031 118.976562 21.511719 118.808594 17.917969 117.796875 C 16.117188 117.285156 14.875 116.574219 14.300781 116.046875 C 13.746094 115.503906 13.617188 115.378906 13.617188 114.453125 L 13.617188 106.085938 C 15.84375 86.339844 25.34375 75.898438 39.511719 69.457031 C 53.722656 63.019531 72.875 61.339844 92.378906 61.785156 Z M 92.507812 51.46875 C 72.335938 51.015625 51.878906 52.496094 35.203125 60.078125 C 18.492188 67.671875 5.84375 82.160156 3.28125 105.015625 C 3.265625 105.210938 3.253906 105.398438 3.238281 105.585938 L 3.238281 114.457031 C 3.238281 118 4.855469 121.371094 7.15625 123.542969 C 9.460938 125.722656 12.246094 126.914062 15.078125 127.710938 C 20.667969 129.285156 26.773438 129.304688 31.960938 128.90625 C 43.417969 128.878906 50.378906 127.042969 54.878906 122.765625 C 59.398438 118.441406 60.402344 113.492188 62.703125 108.898438 L 68.230469 97.847656 C 70.179688 93.964844 72.261719 92.058594 74.636719 90.851562 C 76.996094 89.640625 79.867188 89.175781 83.253906 89.175781 L 141.699219 89.175781 C 145.105469 89.175781 147.964844 89.640625 150.335938 90.851562 C 152.691406 92.058594 154.792969 93.964844 156.738281 97.847656 L 162.269531 108.898438 C 164.574219 113.492188 165.5625 118.441406 170.09375 122.765625 C 174.582031 127.042969 181.542969 128.878906 193.007812 128.90625 C 198.183594 129.304688 204.300781 129.289062 209.875 127.710938 C 212.722656 126.914062 215.5 125.71875 217.796875 123.542969 C 220.117188 121.371094 221.714844 118 221.714844 114.457031 L 221.714844 105.585938 C 221.714844 105.398438 221.703125 105.210938 221.671875 105.015625 C 219.128906 82.160156 206.476562 67.671875 189.765625 60.078125 C 173.082031 52.5 152.625 51.015625 132.464844 51.46875 Z M 92.507812 51.46875 " fill-opacity="1" fill-rule="nonzero"/></g><g clip-path="url(#e1f477b91b)"><path fill="#ffffff" d="M 21.121094 201.882812 C 21.078125 202.109375 21.066406 202.339844 21.050781 202.566406 Z M 83.78125 111.585938 L 94.519531 111.585938 C 98.46875 117.910156 104.8125 122.492188 112.480469 122.492188 C 120.160156 122.476562 126.476562 117.910156 130.421875 111.585938 L 141.199219 111.585938 C 143.042969 123.554688 148.078125 133.824219 159.804688 142.148438 C 165.308594 146.054688 170.765625 149.597656 175.167969 153.167969 C 179.648438 156.792969 182.816406 160.148438 183.933594 164.257812 C 183.949219 164.339844 183.964844 164.433594 183.976562 164.515625 L 193.597656 203.390625 C 193.597656 203.460938 193.613281 203.535156 193.613281 203.59375 C 194.058594 206.011719 192.941406 208.496094 191.269531 210.0625 C 189.398438 211.8125 187.023438 212.808594 184.363281 212.808594 L 40.613281 212.808594 C 37.949219 212.808594 35.578125 211.824219 33.707031 210.0625 C 32.035156 208.515625 30.902344 206.011719 31.347656 203.59375 L 40.996094 164.515625 C 41.015625 164.433594 41.023438 164.339844 41.042969 164.257812 C 42.140625 160.148438 45.320312 156.792969 49.789062 153.167969 C 54.191406 149.597656 59.679688 146.070312 65.1875 142.148438 C 76.910156 133.824219 81.941406 123.558594 83.800781 111.585938 Z M 203.835938 201.746094 L 203.902344 202.566406 C 203.90625 202.296875 203.878906 202.011719 203.835938 201.746094 Z M 83.78125 101.273438 C 78.710938 101.273438 74.308594 105.027344 73.53125 110.019531 C 71.933594 120.386719 68.957031 126.773438 59.152344 133.738281 C 53.902344 137.464844 48.269531 141.078125 43.226562 145.171875 C 38.238281 149.210938 33.019531 154.171875 31.027344 161.570312 C 31.019531 161.582031 31.019531 161.59375 31 161.609375 C 30.984375 161.714844 30.945312 161.910156 30.902344 162.050781 L 21.195312 201.386719 C 21.167969 201.5 21.152344 201.628906 21.136719 201.742188 C 19.964844 208.125 22.667969 213.914062 26.582031 217.578125 C 30.300781 221.0625 35.289062 223.128906 40.613281 223.128906 L 184.347656 223.128906 C 189.664062 223.128906 194.652344 221.0625 198.371094 217.578125 C 202.289062 213.914062 204.996094 208.140625 203.816406 201.742188 C 203.800781 201.625 203.789062 201.496094 203.761719 201.386719 L 194.054688 162.050781 C 194.027344 161.910156 193.984375 161.710938 193.953125 161.609375 C 193.941406 161.597656 193.941406 161.585938 193.925781 161.570312 C 191.9375 154.171875 186.722656 149.210938 181.730469 145.171875 C 176.683594 141.078125 171.078125 137.476562 165.820312 133.738281 C 156.015625 126.773438 153.054688 120.386719 151.4375 110.019531 C 150.664062 105.027344 146.257812 101.273438 141.1875 101.273438 L 128.164062 101.273438 C 125.988281 101.273438 124.042969 102.625 123.289062 104.65625 C 121.617188 109.179688 117.324219 112.164062 112.480469 112.179688 C 107.621094 112.164062 103.3125 109.195312 101.628906 104.65625 C 100.886719 102.625 98.941406 101.273438 96.765625 101.273438 Z M 83.78125 101.273438 " fill-opacity="1" fill-rule="nonzero"/></g><path fill="#ffffff" d="M 112.480469 143.792969 C 124.847656 143.792969 134.753906 153.664062 134.753906 165.953125 C 134.753906 178.242188 124.847656 188.109375 112.480469 188.109375 C 100.128906 188.109375 90.21875 178.242188 90.21875 165.953125 C 90.21875 153.664062 100.128906 143.792969 112.480469 143.792969 Z M 112.480469 133.484375 C 94.519531 133.484375 79.839844 148.074219 79.839844 165.949219 C 79.839844 183.808594 94.519531 198.417969 112.480469 198.417969 C 130.449219 198.417969 145.132812 183.808594 145.132812 165.949219 C 145.132812 148.074219 130.449219 133.484375 112.480469 133.484375 Z M 112.480469 133.484375 " fill-opacity="1" fill-rule="nonzero"/><g clip-path="url(#6a54ab98ab)"><g clip-path="url(#55c7e50d4b)"><path fill="#ffffff" d="M 78.707031 78.769531 L 88.179688 78.769531 L 88.179688 88.242188 L 78.707031 88.242188 Z M 78.707031 78.769531 " fill-opacity="1" fill-rule="nonzero"/></g></g></svg>